<svg width="57" height="52" viewBox="0 0 57 52" fill="none" xmlns="http://www.w3.org/2000/svg">
<path d="M43.9133 14.5224C39.7863 10.8351 34.3092 8.8042 28.4889 8.8042C22.6686 8.8042 17.1915 10.8351 13.0646 14.5224C8.8979 18.2437 6.60326 23.2046 6.60326 28.4888C6.60326 32.2272 7.76051 35.8323 9.95872 38.9693L5.06309 48.3096C4.57523 49.2371 4.74825 50.3603 5.48855 51.1034C5.94805 51.5629 6.55504 51.804 7.17054 51.804C7.54778 51.804 7.92786 51.7133 8.27957 51.5289L18.6636 46.0858C21.6901 47.453 25.0711 48.1734 28.4832 48.1734C34.3035 48.1734 39.7806 46.1426 43.9076 42.4552C48.0743 38.7339 50.3689 33.773 50.3689 28.4888C50.3689 23.2046 48.0743 18.2437 43.9076 14.5224H43.9133ZM28.4889 45.7001C25.2356 45.7001 22.0163 44.9711 19.1799 43.5955L18.6182 43.3232L7.38894 49.2087L12.8745 38.7424L12.398 38.1156C10.2253 35.2678 9.07943 31.9407 9.07943 28.4917C9.07943 19.0011 17.7872 11.2804 28.4889 11.2804C39.1907 11.2804 47.8984 19.0011 47.8984 28.4917C47.8984 37.9822 39.1907 45.7029 28.4889 45.7029V45.7001Z" fill="white"/>
<path d="M18.0466 31.3478C19.6256 31.3478 20.9057 30.0678 20.9057 28.4887C20.9057 26.9097 19.6256 25.6296 18.0466 25.6296C16.4676 25.6296 15.1875 26.9097 15.1875 28.4887C15.1875 30.0678 16.4676 31.3478 18.0466 31.3478Z" fill="white"/>
<path d="M29.4142 31.1903C30.9088 30.6809 31.7075 29.0564 31.1981 27.5618C30.6887 26.0672 29.0641 25.2685 27.5695 25.7779C26.0749 26.2873 25.2762 27.9118 25.7856 29.4064C26.295 30.901 27.9196 31.6997 29.4142 31.1903Z" fill="white"/>
<path d="M41.7664 28.8411C41.9618 27.2742 40.85 25.8456 39.2832 25.6501C37.7163 25.4547 36.2876 26.5665 36.0922 28.1334C35.8967 29.7002 37.0085 31.1289 38.5754 31.3243C40.1423 31.5198 41.5709 30.408 41.7664 28.8411Z" fill="white"/>
<path d="M56.4671 23.111C56.26 22.036 55.9934 20.9809 55.67 19.9512C52.0338 8.40142 41.2242 0 28.4888 0C15.7534 0 4.94101 8.40142 1.30758 19.9512C0.984231 20.9809 0.717609 22.036 0.510552 23.111C0.175857 24.8525 0 26.6508 0 28.4888C0 30.3268 0.175857 32.1251 0.510552 33.8666C0.643863 34.5672 0.805537 35.2565 0.989903 35.9372C1.16292 36.5782 1.73871 37.0264 2.39959 37.0264H3.88303C5.30123 37.0264 6.33084 35.6507 5.90255 34.3006C5.31825 32.4541 5.00341 30.5055 5.00341 28.4916C5.00341 26.4778 5.31541 24.5292 5.90255 22.6827C6.33084 21.3297 5.30123 19.9569 3.88303 19.9569C7.42286 9.77707 17.1148 2.44781 28.4888 2.44781C39.8628 2.44781 49.5547 9.77423 53.0946 19.9569C51.6764 19.9569 50.6468 21.3326 51.0751 22.6827C51.6594 24.5292 51.9742 26.4778 51.9742 28.4916C51.9742 30.5055 51.6622 32.4541 51.0751 34.3006C50.6468 35.6535 51.6764 37.0264 53.0946 37.0264H54.578C55.2417 37.0264 55.8147 36.5782 55.9877 35.9372C56.1721 35.2565 56.3309 34.5672 56.4671 33.8666C56.8017 32.1251 56.9776 30.3268 56.9776 28.4888C56.9776 26.6508 56.8017 24.8525 56.4671 23.111Z" fill="white"/>
</svg>
