<svg width="78" height="89" viewBox="0 0 78 89" fill="none" xmlns="http://www.w3.org/2000/svg">
<path d="M54.1039 47.6504H23.0326C12.6014 47.6504 0 56.1996 0 66.812V86.4225C0 87.3161 0.724789 88.0409 1.61842 88.0409C2.51205 88.0409 3.23684 87.3161 3.23684 86.4225V66.812C3.23684 58.234 14.121 50.8831 23.0326 50.8831H54.1039C63.0155 50.8831 73.8997 58.234 73.8997 66.812V86.4225C73.8997 87.3161 74.6245 88.0409 75.5181 88.0409C76.4117 88.0409 77.1365 87.3161 77.1365 86.4225V66.812C77.1365 56.1955 64.5351 47.6504 54.1039 47.6504Z" fill="#29292B"/>
<path d="M38.5704 40.3905C49.7058 40.3905 58.7657 31.3307 58.7657 20.1953C58.7657 9.05987 49.7058 0 38.5704 0C27.435 0 18.3752 9.05987 18.3752 20.1953C18.3752 31.3307 27.435 40.3905 38.5704 40.3905ZM38.5704 3.23684C47.9227 3.23684 55.5289 10.843 55.5289 20.1953C55.5289 29.5475 47.9227 37.1537 38.5704 37.1537C29.2182 37.1537 21.612 29.5475 21.612 20.1953C21.612 10.843 29.2182 3.23684 38.5704 3.23684Z" fill="#29292B"/>
</svg>
