<svg width="81" height="88" viewBox="0 0 81 88" fill="none" xmlns="http://www.w3.org/2000/svg">
<path d="M21.0018 69.3729H21.1862C26.4253 69.3729 30.6858 63.9606 30.6858 57.3101V55.846C30.6858 54.2389 30.445 52.6845 29.967 51.2204C29.8578 50.8854 29.6245 50.6144 29.3121 50.4526C28.9997 50.2945 28.6421 50.2644 28.3072 50.3736C27.9722 50.4827 27.7012 50.7161 27.5394 51.0284C27.3813 51.3408 27.3512 51.7022 27.4603 52.0334C27.8517 53.234 28.0512 54.5137 28.0512 55.8423V57.3063C28.0512 62.5041 24.9725 66.7307 21.1899 66.7307H21.0055C17.223 66.7307 14.1443 62.5041 14.1443 57.3063V55.8423C14.1443 54.5137 14.3437 53.234 14.7352 52.0371C14.8443 51.7022 14.818 51.3446 14.6561 51.0284C14.498 50.7161 14.2233 50.4827 13.8883 50.3736C13.5533 50.2644 13.1958 50.2908 12.8834 50.4526C12.571 50.6107 12.3339 50.8854 12.2285 51.2204C11.7505 52.6845 11.5096 54.2389 11.5096 55.846V57.3101C11.5096 63.9606 15.7702 69.3729 21.0093 69.3729H21.0018Z" fill="#29292B"/>
<path d="M73.9798 20.7156H66.2454V15.8302C66.2454 7.10215 59.1432 0 50.4151 0H48.9285C40.2004 0 33.0982 7.10215 33.0982 15.8302V20.7156H25.9509C22.3264 20.7156 19.3757 23.6663 19.3757 27.2908V42.1575H2.57815C1.15546 42.1575 0 43.313 0 44.7357V78.3081C0 83.6263 4.32828 87.9545 9.64643 87.9545H32.5337C34.8785 87.9545 37.0275 87.1152 38.7024 85.7189H66.1061C74.0701 85.7189 80.5513 79.2378 80.5513 71.2737V27.287C80.5513 23.6626 77.6005 20.7118 73.9761 20.7118L73.9798 20.7156ZM39.5492 78.3081C39.5492 82.1735 36.4065 85.3162 32.5412 85.3162H9.65396C5.78861 85.3162 2.6459 82.1735 2.6459 78.3081V44.7959H39.553V78.3081H39.5492ZM42.1876 78.3081V44.7357C42.1876 43.313 41.0322 42.1575 39.6095 42.1575H22.0178V27.2908C22.0178 25.1191 23.783 23.3539 25.9547 23.3539H33.102V26.6924C30.9077 27.1929 29.2592 29.1576 29.2592 31.5024C29.2592 34.2236 31.4723 36.4366 34.1935 36.4366C36.9146 36.4366 39.1277 34.2236 39.1277 31.5024C39.1277 29.3232 37.705 27.4677 35.7366 26.8203V23.3577H63.6032V26.651C61.2961 27.0612 59.5346 29.0786 59.5346 31.5062C59.5346 34.2273 61.7477 36.4404 64.4689 36.4404C67.1901 36.4404 69.4031 34.2273 69.4031 31.5062C69.4031 29.4098 68.0858 27.6182 66.2378 26.9069V23.3615H73.9723C76.144 23.3615 77.9091 25.1266 77.9091 27.2983V71.285C77.9091 77.7962 72.6136 83.0918 66.1023 83.0918H40.9117C41.7172 81.6842 42.1801 80.0545 42.1801 78.3156L42.1876 78.3081ZM63.607 20.7156H35.7404V15.8302C35.7404 8.55871 41.6569 2.63837 48.9322 2.63837H50.4189C57.6904 2.63837 63.6108 8.55495 63.6108 15.8302V20.7156H63.607ZM66.7723 31.5024C66.7723 32.767 65.741 33.7983 64.4764 33.7983C63.2118 33.7983 62.1805 32.767 62.1805 31.5024C62.1805 30.2378 63.2118 29.2065 64.4764 29.2065C65.741 29.2065 66.7723 30.2378 66.7723 31.5024ZM36.4893 31.5024C36.4893 32.767 35.4581 33.7983 34.1935 33.7983C32.9288 33.7983 31.8976 32.767 31.8976 31.5024C31.8976 30.2378 32.9288 29.2065 34.1935 29.2065C35.4581 29.2065 36.4893 30.2378 36.4893 31.5024Z" fill="#29292B"/>
</svg>
