<svg width="85" height="71" viewBox="0 0 85 71" fill="none" xmlns="http://www.w3.org/2000/svg">
<path d="M74.4672 52.3439H29.1979C28.5442 52.3439 27.9643 51.9257 27.757 51.3036L11.6679 3.03647H1.51823C0.678284 3.03647 0 2.35467 0 1.51823C0 0.681799 0.681799 0 1.51823 0H12.7644C13.4181 0 13.998 0.418217 14.2053 1.04027L30.2944 49.3074H74.4707C75.3107 49.3074 75.989 49.9892 75.989 50.8257C75.989 51.6621 75.3072 52.3439 74.4707 52.3439H74.4672Z" fill="#2E2D2C"/>
<path d="M33.3662 42.0714C32.7196 42.0714 32.1362 41.6602 31.9288 41.0381L23.2798 15.3758C23.1252 14.9119 23.199 14.4023 23.4872 14.0052C23.7718 13.608 24.2322 13.3726 24.7207 13.3726H83.1059C83.5769 13.3726 84.0232 13.594 84.3114 13.9665C84.5995 14.3425 84.6944 14.8275 84.5714 15.2844L78.611 37.4569C78.4458 38.079 77.9046 38.5253 77.2649 38.578L33.4892 42.0714C33.447 42.0714 33.4084 42.0749 33.3662 42.0749V42.0714ZM26.8329 16.409L34.4276 38.9435L75.9541 35.6294L81.1203 16.409H26.8329Z" fill="#2E2D2C"/>
<path d="M74.4674 70.7207C70.475 70.7207 67.2277 67.4733 67.2277 63.4809C67.2277 59.4885 70.475 56.2412 74.4674 56.2412C78.4598 56.2412 81.7071 59.4885 81.7071 63.4809C81.7071 67.4733 78.4598 70.7207 74.4674 70.7207ZM74.4674 59.2812C72.1514 59.2812 70.2676 61.1649 70.2676 63.4809C70.2676 65.7969 72.1514 67.6807 74.4674 67.6807C76.7834 67.6807 78.6671 65.7969 78.6671 63.4809C78.6671 61.1649 76.7834 59.2812 74.4674 59.2812Z" fill="#2E2D2C"/>
<path d="M35.3973 70.7207C31.4049 70.7207 28.1576 67.4733 28.1576 63.4809C28.1576 59.4885 31.4049 56.2412 35.3973 56.2412C39.3897 56.2412 42.637 59.4885 42.637 63.4809C42.637 67.4733 39.3897 70.7207 35.3973 70.7207ZM35.3973 59.2812C33.0813 59.2812 31.1976 61.1649 31.1976 63.4809C31.1976 65.7969 33.0813 67.6807 35.3973 67.6807C37.7133 67.6807 39.5971 65.7969 39.5971 63.4809C39.5971 61.1649 37.7133 59.2812 35.3973 59.2812Z" fill="#2E2D2C"/>
</svg>
