<svg width="51" height="54" viewBox="0 0 51 54" fill="none" xmlns="http://www.w3.org/2000/svg">
<path d="M50.0735 8.53617C50.0735 8.53617 50.0735 8.53094 50.0735 8.52832V8.43929C50.0735 7.83966 49.7435 7.53068 49.5262 7.32644C49.4922 7.2924 49.4503 7.25575 49.3953 7.20076L42.4433 0.570824C42.1631 0.303741 41.8463 0 41.2597 0H40.7963H12.894C11.9723 0 11.2234 0.748879 11.2234 1.67058V6.1429L1.36229 7.83442C0.469395 7.99153 -0.130232 8.84515 0.0242567 9.73804L7.32714 52.3351C7.46591 53.1311 8.16766 53.6993 8.95843 53.6993C9.04746 53.6993 9.13911 53.6915 9.23075 53.6784L39.817 48.4336H48.4133C49.335 48.4336 50.0839 47.6821 50.0839 46.7578V8.54403C50.0839 8.54403 50.0839 8.53879 50.0839 8.53617H50.0735ZM46.6616 7.48879H42.5742C42.4171 7.48879 42.006 7.49403 41.8724 7.42333C41.8646 7.39976 41.8515 7.34216 41.8515 7.23742L41.841 2.89601L46.659 7.48879H46.6616ZM9.30407 51.5391L2.15306 9.82445L11.2129 8.27171V46.7604C11.2129 47.6847 11.9618 48.4362 12.8835 48.4362H27.4107L9.30407 51.5417V51.5391ZM13.3077 46.3388V2.09477H39.7463L39.7567 7.23742C39.7567 8.09627 40.0998 8.61996 40.3878 8.90537C41.0267 9.54166 41.9091 9.58355 42.4564 9.58355C42.5035 9.58355 42.5454 9.58355 42.5873 9.58355H47.9761V46.3388H13.3077Z" fill="white"/>
<path d="M43.3847 12.7703H18.2554C17.6767 12.7703 17.208 13.239 17.208 13.8176C17.208 14.3963 17.6767 14.865 18.2554 14.865H43.3847C43.9634 14.865 44.4321 14.3963 44.4321 13.8176C44.4321 13.239 43.9634 12.7703 43.3847 12.7703Z" fill="white"/>
<path d="M43.3847 19.0127H18.2554C17.6767 19.0127 17.208 19.4814 17.208 20.0601C17.208 20.6388 17.6767 21.1075 18.2554 21.1075H43.3847C43.9634 21.1075 44.4321 20.6388 44.4321 20.0601C44.4321 19.4814 43.9634 19.0127 43.3847 19.0127Z" fill="white"/>
<path d="M43.3847 25.2576H18.2554C17.6767 25.2576 17.208 25.7263 17.208 26.305C17.208 26.8836 17.6767 27.3523 18.2554 27.3523H43.3847C43.9634 27.3523 44.4321 26.8836 44.4321 26.305C44.4321 25.7263 43.9634 25.2576 43.3847 25.2576Z" fill="white"/>
<path d="M43.3847 31.5027H18.2554C17.6767 31.5027 17.208 31.9714 17.208 32.5501C17.208 33.1287 17.6767 33.5975 18.2554 33.5975H43.3847C43.9634 33.5975 44.4321 33.1287 44.4321 32.5501C44.4321 31.9714 43.9634 31.5027 43.3847 31.5027Z" fill="white"/>
<path d="M43.3847 37.7451H18.2554C17.6767 37.7451 17.208 38.2138 17.208 38.7925C17.208 39.3712 17.6767 39.8399 18.2554 39.8399H43.3847C43.9634 39.8399 44.4321 39.3712 44.4321 38.7925C44.4321 38.2138 43.9634 37.7451 43.3847 37.7451Z" fill="white"/>
</svg>
