<svg width="96" height="88" viewBox="0 0 96 88" fill="none" xmlns="http://www.w3.org/2000/svg">
<path d="M93.988 37.544C93.988 37.544 93.9537 37.5134 93.9346 37.4982L83.1194 28.5873V10.548C83.1194 9.71991 82.4478 9.04825 81.6196 9.04825H71.2624C70.4343 9.04825 69.7626 9.71991 69.7626 10.548V17.5813L48.8383 0.34346C48.285 -0.114487 47.4874 -0.114487 46.9302 0.34346L1.83014 37.4943C1.83014 37.4943 1.7958 37.5249 1.77672 37.5401C-0.287859 39.4101 -0.116129 40.9366 0.170088 41.6807C0.452488 42.4173 1.33403 43.6499 4.055 43.6499H12.6453V86.506C12.6453 87.3341 13.317 88.0058 14.1451 88.0058H38.9887C39.8168 88.0058 40.4884 87.3341 40.4884 86.506V53.7438H55.2725V86.506C55.2725 87.3341 55.9441 88.0058 56.7722 88.0058H81.6196C82.4478 88.0058 83.1194 87.3341 83.1194 86.506V49.504C83.1194 48.6759 82.4478 48.0042 81.6196 48.0042C80.7915 48.0042 80.1199 48.6759 80.1199 49.504V85.0101H58.272V52.2478C58.272 51.4197 57.6004 50.7481 56.7722 50.7481H38.9887C38.1605 50.7481 37.4889 51.4197 37.4889 52.2478V85.0101H15.6449V42.1539C15.6449 41.3258 14.9732 40.6542 14.1451 40.6542H4.055C3.60087 40.6542 3.29175 40.6046 3.10094 40.5511C3.2078 40.3756 3.41006 40.1161 3.76496 39.7917L47.8843 3.44605L70.3084 21.9204C70.7549 22.2905 71.3769 22.3669 71.8997 22.1188C72.4264 21.8707 72.7584 21.3441 72.7584 20.764V12.0516H80.1199V29.2971C80.1199 29.7436 80.3183 30.171 80.6656 30.4534L91.9959 39.7879C92.3508 40.1123 92.5531 40.3718 92.66 40.5473C92.4691 40.6007 92.16 40.6504 91.7059 40.6504H82.1539L48.8345 13.1965C48.8345 13.1965 48.8345 13.1965 48.8307 13.1965C48.7658 13.1431 48.7009 13.1011 48.6322 13.0629C48.617 13.0515 48.5979 13.04 48.5826 13.0286C48.533 13.0019 48.4758 12.9828 48.4224 12.9637C48.0178 12.8072 47.5637 12.8263 47.1821 13.0286C47.1744 13.0286 47.1706 13.0362 47.1668 13.04C47.0867 13.0858 47.0065 13.1354 46.934 13.1927C46.934 13.1927 46.934 13.1927 46.9302 13.1927L18.2055 36.857C17.5682 37.3837 17.4766 38.3301 18.0033 38.9674C18.3009 39.3261 18.7284 39.5131 19.1596 39.5131C19.4954 39.5131 19.8312 39.4025 20.1136 39.1697L47.8843 16.2914L80.6656 43.2988C80.9327 43.5201 81.2724 43.6423 81.6196 43.6423H91.7097C94.4307 43.6423 95.3122 42.4096 95.5946 41.6731C95.8808 40.9289 96.0526 39.4024 93.988 37.5325V37.544Z" fill="#29292B"/>
</svg>
