<svg width="58" height="45" viewBox="0 0 58 45" fill="none" xmlns="http://www.w3.org/2000/svg">
<path d="M57.9976 8.45581C57.9976 8.42934 57.9976 8.40288 57.9928 8.37882C57.9928 8.3716 57.9928 8.36439 57.9928 8.35958C57.9856 8.29462 57.9689 8.23207 57.9473 8.16952C57.9449 8.15989 57.9401 8.15268 57.9377 8.14305C57.9305 8.1214 57.9209 8.10215 57.9114 8.0805C57.9066 8.07088 57.9018 8.06125 57.8946 8.04923C57.885 8.02998 57.8754 8.01314 57.8635 7.99389C57.8587 7.98427 57.8515 7.97465 57.8443 7.96502C57.8299 7.94578 57.8155 7.92653 57.8012 7.90728C57.7964 7.90006 57.7916 7.89525 57.7868 7.88804C57.7652 7.86398 57.7437 7.83992 57.7197 7.81586C57.7197 7.81586 57.7173 7.81586 57.7149 7.81346C57.6934 7.7918 57.6694 7.77256 57.6431 7.75331C57.6431 7.75331 57.6383 7.75091 57.6383 7.7485C57.6335 7.74609 57.6287 7.74369 57.6239 7.73888C57.6047 7.72444 57.5832 7.71001 57.5616 7.69798C57.552 7.69317 57.5449 7.68835 57.5353 7.68354C57.5161 7.67392 57.4945 7.66189 57.4754 7.65467C57.4658 7.64986 57.4562 7.64505 57.4466 7.64264C57.4275 7.63543 57.4059 7.62821 57.3844 7.62099C57.3748 7.61859 57.3628 7.61378 57.3532 7.61137C57.3508 7.61137 57.346 7.61137 57.3436 7.60896L29.2276 0.030674C29.0767 -0.0102247 28.9209 -0.0102247 28.77 0.030674L0.653973 7.60896C0.653973 7.60896 0.649182 7.60896 0.644391 7.61137C0.632414 7.61378 0.622831 7.61859 0.613249 7.62099C0.59169 7.62821 0.572526 7.63543 0.553362 7.64264C0.54378 7.64746 0.534198 7.65227 0.52222 7.65467C0.500661 7.6643 0.481497 7.67392 0.462333 7.68354C0.452751 7.68835 0.445564 7.69317 0.435982 7.69798C0.414423 7.71001 0.392863 7.72444 0.373699 7.73888C0.368908 7.74128 0.364117 7.74369 0.359326 7.7485C0.359326 7.7485 0.354535 7.75091 0.354535 7.75331C0.33058 7.77256 0.306625 7.7918 0.28267 7.81346C0.28267 7.81346 0.280274 7.81346 0.277879 7.81586C0.253924 7.83751 0.232364 7.86157 0.210804 7.88804C0.206013 7.89285 0.201222 7.90006 0.196431 7.90728C0.182058 7.92653 0.167685 7.94578 0.153312 7.96502C0.146126 7.97465 0.141335 7.98427 0.134148 7.99389C0.122171 8.01073 0.112589 8.02998 0.103007 8.04923C0.0982158 8.05885 0.0934249 8.06847 0.0862384 8.0805C0.0766563 8.09975 0.0670742 8.1214 0.0598877 8.14305C0.0574921 8.15268 0.0527009 8.15989 0.0503054 8.16952C0.0287459 8.22966 0.0143731 8.29462 0.00479112 8.35958C0.00479112 8.36679 0.00479112 8.37401 0.00479112 8.37882C0.00239562 8.40528 0 8.42934 0 8.45581C0 8.46062 0 8.46302 0 8.46784V36.7048C0 37.1065 0.270692 37.4602 0.658764 37.5612L28.7748 44.9711C28.7748 44.9711 28.7772 44.9711 28.7796 44.9711C28.8108 44.9783 28.8443 44.9856 28.8754 44.9904C28.8826 44.9904 28.8898 44.9904 28.8994 44.9928C28.9329 44.9976 28.9665 45 29 45C29.0335 45 29.0671 44.9976 29.1006 44.9928C29.1078 44.9928 29.115 44.9928 29.1246 44.9904C29.1581 44.9856 29.1892 44.9808 29.2204 44.9711C29.2204 44.9711 29.2228 44.9711 29.2252 44.9711L57.3412 37.5612C57.7293 37.4578 58 37.1065 58 36.7048V8.46784C58 8.46784 58 8.46062 58 8.45581H57.9976ZM29 16.3517L15.9972 12.2762L42.8412 5.64823C42.9035 5.6338 42.9634 5.60974 43.0185 5.58327L53.9516 8.53039L29 16.3493V16.3517ZM29 1.80856L39.5259 4.64501L12.7968 11.2441C12.78 11.2489 12.7633 11.2538 12.7465 11.2586L4.0508 8.53279L29.0024 1.80856H29ZM1.76549 9.67314L28.1185 17.9323V42.9695L1.76549 36.0239V9.67555V9.67314ZM56.2345 36.0215L29.8815 42.9671V17.9299L56.2345 9.67074V36.0191V36.0215Z" fill="white"/>
</svg>
