<svg width="56" height="55" viewBox="0 0 56 55" fill="none" xmlns="http://www.w3.org/2000/svg">
<path d="M54.9001 14.0945H42.5533C44.1963 12.6094 45.2307 10.481 45.2307 8.11946C45.2307 3.6429 41.5217 0 36.964 0C33.0012 0 29.6443 3.28906 27.9959 8.19451C26.3475 3.28906 22.9906 0 19.0278 0C14.4701 0 10.7611 3.6429 10.7611 8.11946C10.7611 10.481 11.7928 12.6094 13.4385 14.0945H1.09167C0.488523 14.0945 0 14.5743 0 15.1667V29.2611C0 29.8535 0.488523 30.3334 1.09167 30.3334H3.58614V50.4028C3.58614 52.936 5.68488 55 8.26668 55H47.7306C50.3097 55 52.4111 52.9386 52.4111 50.4028V30.3334H54.9083C55.5115 30.3334 56 29.8535 56 29.2611V15.1667C56 14.5743 55.5115 14.0945 54.9083 14.0945H54.9001ZM53.8085 16.2389V28.1889H34.4668V16.2389H53.8085ZM23.7029 16.2389H32.2834V52.8555H23.7029V16.2389ZM36.964 2.14446C40.3181 2.14446 43.0473 4.82503 43.0473 8.11946C43.0473 11.4139 40.3181 14.0945 36.964 14.0945H29.1149C29.4451 7.41447 32.8375 2.14446 36.964 2.14446ZM12.9418 8.11946C12.9418 4.82503 15.6709 2.14446 19.0251 2.14446C23.1489 2.14446 26.5413 7.41447 26.8742 14.0945H19.0251C15.6709 14.0945 12.9418 11.4139 12.9418 8.11946ZM21.5196 16.2389V28.1889H2.17788V16.2389H21.5196ZM5.76675 50.4055V30.336H21.5223V52.8582H8.26395C6.88845 52.8582 5.76675 51.7592 5.76675 50.4055ZM50.2223 50.4055C50.2223 51.7565 49.1034 52.8582 47.7251 52.8582H34.4668V30.336H50.2223V50.4055Z" fill="white"/>
</svg>
