<svg width="67" height="45" viewBox="0 0 67 45" fill="none" xmlns="http://www.w3.org/2000/svg">
<path d="M66.9484 23.0681L59.9063 1.07779C59.8147 0.796401 59.6176 0.562372 59.3565 0.428641C59.0955 0.29491 58.7901 0.269836 58.5096 0.35899L52.9448 2.15321C51.8563 2.50426 50.9704 3.25928 50.4484 4.27897C50.0513 5.0535 49.9041 5.9116 50.0069 6.75857C47.7687 7.54981 45.3751 7.72254 43.0286 7.25448L36.1643 5.88374C34.2955 5.51041 32.3794 5.99797 30.9105 7.21827L29.0666 8.7506H27.0923C24.7153 8.7506 22.4078 8.11259 20.3751 6.90344C20.4084 5.38504 19.6392 3.89171 18.2397 3.08097L13.1775 0.150035C12.922 0.00237425 12.6194 -0.0394171 12.3333 0.0385926C12.0501 0.113816 11.8057 0.300482 11.6586 0.5568L0.14853 20.5607C-0.156924 21.0928 0.0235712 21.7754 0.55395 22.0819L5.61615 25.0128C6.28815 25.4029 7.02123 25.5867 7.74877 25.5867C8.69012 25.5867 9.61481 25.2747 10.3673 24.6924L13.8301 27.9493C13.4191 28.5511 13.1969 29.2588 13.1969 30.0026C13.1969 30.975 13.5746 31.8888 14.2577 32.577L14.3466 32.6661C15.0324 33.3543 15.9433 33.7332 16.9124 33.7332C16.9374 33.7332 16.9624 33.7304 16.9873 33.7304C17.0429 34.5411 17.3733 35.3324 17.9898 35.9509L18.0731 36.0345C18.7284 36.692 19.5976 37.0542 20.5251 37.0542C20.6611 37.0542 20.7944 37.043 20.9249 37.0291C21.0416 37.7395 21.372 38.3943 21.8913 38.9152L21.9746 38.9988C22.6299 39.6563 23.4991 40.0185 24.4265 40.0185C24.5237 40.0185 24.6237 40.013 24.7181 40.0046C24.8264 40.7373 25.1596 41.4143 25.6928 41.9493L25.7733 42.0301C26.4286 42.6876 27.2978 43.0498 28.2253 43.0498C28.8334 43.0498 29.4165 42.891 29.9302 42.5984L31.9518 44.1363C32.6432 44.6963 33.5096 45 34.3899 45C34.562 45 34.7342 44.9889 34.9036 44.9666C35.9643 44.8217 36.9251 44.2394 37.5416 43.3646C37.8109 42.9857 37.9942 42.5789 38.1053 42.161C38.6468 42.4368 39.2466 42.5845 39.8575 42.5845C40.0297 42.5845 40.2018 42.5733 40.3712 42.5511C41.432 42.4062 42.3928 41.8239 43.0092 40.9491C43.3869 40.4169 43.609 39.8151 43.6895 39.205C44.0089 39.2886 44.3393 39.3332 44.6725 39.3332C44.8447 39.3332 45.0169 39.322 45.1863 39.2997C46.247 39.1549 47.2078 38.5726 47.8243 37.6977C48.1714 37.2074 48.3824 36.6697 48.4657 36.1236C48.7656 36.1961 49.0711 36.2351 49.3821 36.2351C49.5626 36.2351 49.7458 36.2211 49.9263 36.1961C51.001 36.0428 51.9701 35.441 52.5866 34.5439C53.6751 32.9587 53.4446 30.8301 52.0673 29.5067L56.6102 25.4781C56.8518 25.6815 57.1156 25.8598 57.4016 26.0074C58.0153 26.3223 58.6818 26.4839 59.351 26.4839C59.7897 26.4839 60.234 26.4142 60.6644 26.2749L66.2292 24.4807C66.5097 24.3915 66.7429 24.1909 66.8762 23.929C67.0123 23.6672 67.0373 23.3607 66.9457 23.0793L66.9484 23.0681ZM32.3294 8.93169C33.2791 8.14045 34.5204 7.82563 35.7311 8.06801L42.5955 9.43875C45.289 9.97646 48.0381 9.7898 50.615 8.90383L55.2857 23.4916C55.3051 23.5557 55.3329 23.6198 55.3579 23.6811L50.4262 28.0552L35.5201 15.1195C34.5037 14.2391 33.1153 14.0385 31.8963 14.6013C30.6744 15.1641 29.9191 16.3482 29.9247 17.6966V18.3346C29.9247 20.7251 28.1697 22.6976 25.8511 23.0041V16.5933C25.8511 15.1502 26.487 13.7961 27.5921 12.8767L32.3322 8.93726L32.3294 8.93169ZM6.72689 23.0821L2.62548 20.7084L13.0248 2.6352L17.1262 5.00892C17.8787 5.44355 18.2508 6.28772 18.1286 7.10125C18.1064 7.1709 18.0925 7.23777 18.087 7.31021C18.0426 7.48573 17.9731 7.66125 17.8787 7.82563L9.53428 22.3271C9.50651 22.3744 9.47597 22.4218 9.44542 22.4664C9.42321 22.497 9.39822 22.5249 9.37878 22.5583C8.75954 23.3607 7.62659 23.6059 6.72689 23.0849V23.0821ZM15.9183 31.092L15.8294 31.0028C15.5628 30.7354 15.4184 30.3816 15.4184 30.0054C15.4184 29.6293 15.5656 29.2727 15.8322 29.008L17.1401 27.6958C17.6899 27.1442 18.5813 27.1442 19.1311 27.6958L19.2199 27.7849C19.7698 28.3366 19.7698 29.2309 19.2199 29.7826L17.912 31.0948C17.3622 31.6464 16.4709 31.6436 15.9238 31.0948L15.9183 31.092ZM19.642 34.4576L19.5587 34.374C19.0728 33.8864 19.0728 33.0952 19.5587 32.6076L23.077 29.0777C23.5629 28.5901 24.3516 28.5901 24.8375 29.0777L24.9208 29.1613C25.1568 29.3981 25.2846 29.7101 25.2846 30.0444C25.2846 30.3788 25.1541 30.6908 24.9208 30.9276L21.4025 34.4576C21.1665 34.6944 20.8555 34.8225 20.5223 34.8225C20.1891 34.8225 19.878 34.6916 19.642 34.4576ZM23.5435 37.4191L23.4602 37.3356C23.2242 37.0987 23.0964 36.7867 23.0964 36.4524C23.0964 36.118 23.2269 35.806 23.4602 35.5692L26.0316 32.9893C26.2676 32.7525 26.5786 32.6243 26.9118 32.6243C27.245 32.6243 27.556 32.7553 27.7921 32.9893L27.8754 33.0729C28.3613 33.5604 28.3613 34.3517 27.8754 34.8392L26.3925 36.327C26.362 36.3549 26.3315 36.3799 26.3037 36.4078L25.69 37.0235C25.6622 37.0514 25.6372 37.082 25.6122 37.1099L25.304 37.4191C25.068 37.6559 24.757 37.7841 24.4238 37.7841C24.0905 37.7841 23.7795 37.6532 23.5435 37.4191ZM27.3422 40.4476L27.2589 40.364C27.0229 40.1272 26.8952 39.8151 26.8952 39.4808C26.8952 39.166 27.0146 38.8735 27.2228 38.6422L27.917 37.9457C28.1475 37.7367 28.4391 37.6169 28.7529 37.6169C29.0861 37.6169 29.3971 37.7479 29.6331 37.9819L29.7164 38.0655C30.2024 38.5531 30.2024 39.3443 29.7164 39.8319L29.1027 40.4476C28.8667 40.6844 28.5557 40.8126 28.2225 40.8126C27.8893 40.8126 27.5783 40.6816 27.3422 40.4476ZM35.7255 42.0663C35.459 42.4452 35.0591 42.6876 34.6009 42.7489C34.14 42.8102 33.6929 42.6848 33.3374 42.3895C33.3263 42.3811 33.3152 42.3727 33.3041 42.3644L31.588 41.0577C32.4711 39.8987 32.5294 38.3107 31.7657 37.0932L35.6089 40.2331C36.0893 40.7819 36.1448 41.4729 35.7255 42.0663ZM50.7566 33.2651C50.4873 33.6552 50.0818 33.9087 49.6153 33.9756C49.146 34.0424 48.6879 33.9143 48.3102 33.605L39.4326 26.495C38.955 26.1105 38.2552 26.1885 37.872 26.6705C37.4888 27.1525 37.5666 27.8518 38.047 28.2363L45.6472 34.3238C46.3498 34.9005 46.4914 35.7141 46.011 36.3939C45.7444 36.7728 45.3445 37.0152 44.8864 37.0765C44.4282 37.1377 43.9783 37.0124 43.6035 36.7031L35.3173 30.1949C34.8342 29.816 34.1372 29.8996 33.7567 30.3843C33.3791 30.8691 33.4624 31.5684 33.9456 31.9501L40.9155 37.4247C41.5819 37.9708 41.7013 38.9264 41.1904 39.648C40.9238 40.0269 40.5239 40.2693 40.0658 40.3306C39.6076 40.3919 39.1577 40.2665 38.7995 39.9712L37.1084 38.5893C37.0001 38.4778 36.889 38.372 36.7641 38.2717C36.6974 38.2187 36.628 38.1742 36.553 38.1379L32.6182 34.9256C32.1434 34.5384 31.4436 34.608 31.0549 35.0872C30.8133 35.3853 30.7494 35.7698 30.8522 36.1125C30.5967 35.9147 30.3162 35.7531 30.0191 35.6361C30.7439 34.3155 30.5523 32.6188 29.436 31.4988L29.3527 31.4152C28.8362 30.897 28.1808 30.5654 27.4727 30.4484C27.4866 30.3147 27.4977 30.181 27.4977 30.0472C27.4977 29.1195 27.1367 28.2446 26.4814 27.5871L26.3981 27.5036C25.0735 26.1746 22.9354 26.1523 21.5775 27.4311C21.3998 26.9853 21.1332 26.5702 20.775 26.208L20.6861 26.1189C19.2727 24.698 16.9707 24.7008 15.5545 26.1189L15.3435 26.3306L11.7391 22.94L19.7337 9.04592C21.8024 10.1771 24.0933 10.8179 26.4564 10.9126L26.1593 11.1578C24.5432 12.5034 23.6129 14.4815 23.6129 16.5906V23.4554C23.6129 23.9458 23.8156 24.4222 24.1683 24.7621C24.5209 25.102 25.0013 25.2859 25.4928 25.2663C29.2166 25.1159 32.1323 22.0707 32.1323 18.3319V17.6911C32.1295 16.9945 32.6488 16.702 32.8071 16.6268C32.9653 16.5543 33.5263 16.3482 34.0511 16.8051L50.4651 31.0502C51.1065 31.6102 51.2259 32.563 50.7427 33.2651H50.7566ZM59.9869 24.1408C59.4648 24.3079 58.9067 24.2634 58.4179 24.0126C57.9292 23.7619 57.5682 23.3328 57.3988 22.809L52.295 6.86722C52.1256 6.34344 52.1728 5.78344 52.4227 5.2931C52.6726 4.80275 53.1003 4.44057 53.6223 4.27062L58.1292 2.81629L64.4909 22.6837L59.9841 24.138L59.9869 24.1408Z" fill="white"/>
</svg>
