<svg width="49" height="56" viewBox="0 0 49 56" fill="none" xmlns="http://www.w3.org/2000/svg">
<path d="M34.1805 30.1038H14.551C7.96105 30.1038 0 35.5048 0 42.2092V54.5983C0 55.1629 0.457891 55.6207 1.02245 55.6207C1.58701 55.6207 2.0449 55.1629 2.0449 54.5983V42.2092C2.0449 36.79 8.92106 32.1461 14.551 32.1461H34.1805C39.8105 32.1461 46.6866 36.79 46.6866 42.2092V54.5983C46.6866 55.1629 47.1445 55.6207 47.7091 55.6207C48.2736 55.6207 48.7315 55.1629 48.7315 54.5983V42.2092C48.7315 35.5022 40.7705 30.1038 34.1805 30.1038Z" fill="white"/>
<path d="M24.3659 25.517C31.4008 25.517 37.1244 19.7934 37.1244 12.7585C37.1244 5.72363 31.4008 0 24.3659 0C17.3311 0 11.6074 5.72363 11.6074 12.7585C11.6074 19.7934 17.3311 25.517 24.3659 25.517ZM24.3659 2.0449C30.2743 2.0449 35.0795 6.85015 35.0795 12.7585C35.0795 18.6668 30.2743 23.4721 24.3659 23.4721C18.4576 23.4721 13.6523 18.6668 13.6523 12.7585C13.6523 6.85015 18.4576 2.0449 24.3659 2.0449Z" fill="white"/>
</svg>
