<svg width="84" height="36" viewBox="0 0 84 36" fill="none" xmlns="http://www.w3.org/2000/svg">
<rect y="5.94556" width="83.24" height="27.7467" rx="6.03188" fill="#fd010e"/>
<path d="M18.325 13.1265C19.5298 13.1265 20.5862 13.3582 21.4944 13.8215C22.4211 14.2849 23.1439 14.9892 23.6628 15.9344C24.1818 16.8796 24.4413 18.0751 24.4413 19.5207V28H21.7724V19.8265C21.7724 18.3994 21.4202 17.3244 20.7159 16.6016C20.0302 15.8788 19.0571 15.5174 17.7968 15.5174C16.8516 15.5174 16.0268 15.7027 15.3225 16.0734C14.6183 16.4441 14.0715 16.9908 13.6823 17.7136C13.3116 18.4365 13.1263 19.3354 13.1263 20.4103V28H10.4574V13.2655H13.0151V17.241L12.5981 16.1846C13.0799 15.2208 13.8213 14.4702 14.8221 13.9327C15.823 13.3952 16.9906 13.1265 18.325 13.1265ZM38.9996 28.1668C37.4242 28.1668 36.0342 27.8425 34.8295 27.1938C33.6433 26.5451 32.7166 25.6555 32.0494 24.5249C31.4007 23.3943 31.0763 22.0969 31.0763 20.6327C31.0763 19.1686 31.3914 17.8712 32.0216 16.7406C32.6703 15.61 33.5506 14.7297 34.6627 14.0995C35.7932 13.4508 37.0628 13.1265 38.4714 13.1265C39.8985 13.1265 41.1588 13.4416 42.2523 14.0717C43.3458 14.7019 44.1984 15.5915 44.81 16.7406C45.4402 17.8712 45.7553 19.1964 45.7553 20.7161C45.7553 20.8274 45.746 20.9571 45.7275 21.1054C45.7275 21.2536 45.7182 21.3926 45.6997 21.5224H33.1614V19.6041H44.3096L43.2254 20.2713C43.2439 19.3261 43.0493 18.4828 42.6415 17.7414C42.2338 17.0001 41.6685 16.4255 40.9457 16.0178C40.2414 15.5915 39.4166 15.3784 38.4714 15.3784C37.5447 15.3784 36.7199 15.5915 35.9971 16.0178C35.2743 16.4255 34.709 17.0094 34.3013 17.7692C33.8935 18.5106 33.6896 19.3632 33.6896 20.3269V20.7718C33.6896 21.7541 33.912 22.6344 34.3569 23.4128C34.8202 24.1727 35.4596 24.7658 36.2751 25.1921C37.0906 25.6184 38.0266 25.8315 39.083 25.8315C39.9541 25.8315 40.7418 25.6833 41.4461 25.3867C42.1689 25.0902 42.7991 24.6454 43.3366 24.0523L44.81 25.7759C44.1428 26.5544 43.3088 27.1474 42.3079 27.5552C41.3256 27.9629 40.2229 28.1668 38.9996 28.1668ZM55.3616 28L49.8848 13.2655H52.4147L57.2798 26.61H56.0844L61.1442 13.2655H63.396L68.3446 26.61H67.177L72.1533 13.2655H74.5442L69.0396 28H66.482L61.8392 15.8232H62.6176L57.9193 28H55.3616Z" fill="white"/>
</svg>
