<svg width="321" height="95" viewBox="0 0 321 95" fill="none" xmlns="http://www.w3.org/2000/svg">
<path d="M167.723 26.1832H178.546C181.952 26.1832 184.548 26.4529 186.335 26.9921C188.088 27.5314 189.504 28.61 190.617 30.2615C191.73 31.913 192.236 34.542 192.236 38.1484C192.236 40.6088 191.865 42.3278 191.089 43.2715C190.314 44.249 188.83 44.9905 186.571 45.496C189.1 46.069 190.786 47.0127 191.662 48.3272C192.539 49.6417 193.011 51.6977 193.011 54.4278V58.3375C193.011 61.1687 192.674 63.2921 192.033 64.6403C191.393 66.0222 190.347 66.9322 188.965 67.4378C187.549 67.9434 184.649 68.1793 180.3 68.1793H167.757V26.1832H167.723ZM178.58 33.396V42.7322C179.052 42.6985 179.423 42.6985 179.659 42.6985C180.738 42.6985 181.412 42.4289 181.682 41.8896C181.986 41.3504 182.12 39.8673 182.12 37.3732C182.12 36.0587 181.986 35.1487 181.75 34.6094C181.514 34.0701 181.21 33.7668 180.806 33.5983C180.435 33.4635 179.693 33.396 178.58 33.396ZM178.58 49.271V61.0339C180.097 60.9665 181.075 60.7306 181.514 60.2924C181.918 59.8543 182.154 58.8094 182.154 57.0905V53.1807C182.154 51.3944 181.952 50.2821 181.581 49.9114C181.176 49.5406 180.199 49.3384 178.58 49.271Z" fill="#29292B"/>
<path d="M201.035 26.1832H208.723C213.848 26.1832 217.321 26.3855 219.141 26.7899C220.962 27.1944 222.446 28.2055 223.592 29.857C224.738 31.5086 225.311 34.1038 225.311 37.6765C225.311 40.9459 224.907 43.1367 224.098 44.2827C223.288 45.3949 221.704 46.069 219.31 46.305C221.468 46.8442 222.918 47.552 223.659 48.4621C224.401 49.3721 224.873 50.181 225.042 50.9562C225.21 51.6977 225.311 53.7874 225.311 57.1579V68.2467H215.23V54.2593C215.23 52.0011 215.061 50.6192 214.691 50.0799C214.32 49.5406 213.409 49.271 211.926 49.271V68.213H201.069V26.1832H201.035ZM211.892 33.396V42.7322C213.106 42.7322 213.983 42.5637 214.455 42.2267C214.96 41.8896 215.196 40.8111 215.196 38.9573V36.6317C215.196 35.2835 214.96 34.4072 214.488 34.0027C214.016 33.5983 213.14 33.396 211.892 33.396Z" fill="#29292B"/>
<path d="M254.646 26.1832L260.85 68.213H249.757L249.183 60.6632H245.306L244.665 68.213H233.438L238.967 26.1832H254.646ZM248.914 53.2144C248.374 48.4621 247.801 42.5637 247.262 35.5531C246.149 43.6086 245.475 49.4732 245.171 53.2144H248.914Z" fill="#29292B"/>
<path d="M293.352 44.485H282.495V37.1711C282.495 35.0477 282.394 33.7332 282.158 33.1939C281.922 32.6547 281.417 32.385 280.607 32.385C279.697 32.385 279.157 32.7221 278.921 33.3625C278.685 34.0028 278.551 35.3847 278.551 37.5081V57.0232C278.551 59.0792 278.685 60.3936 278.921 61.034C279.157 61.6407 279.697 61.9778 280.54 61.9778C281.349 61.9778 281.889 61.6744 282.125 61.034C282.361 60.3936 282.495 58.9443 282.495 56.6187V51.3271H293.352V52.9786C293.352 57.3265 293.049 60.4273 292.442 62.2474C291.835 64.0675 290.486 65.6516 288.396 67.0335C286.305 68.4154 283.743 69.0895 280.675 69.0895C277.505 69.0895 274.875 68.5165 272.819 67.3368C270.762 66.1908 269.38 64.573 268.705 62.517C268.031 60.4611 267.694 57.3939 267.694 53.2482V40.9797C267.694 37.9463 267.795 35.6881 267.997 34.1714C268.199 32.6547 268.806 31.2053 269.852 29.7897C270.863 28.3742 272.279 27.2956 274.1 26.4867C275.921 25.6778 278.011 25.2733 280.338 25.2733C283.541 25.2733 286.171 25.88 288.261 27.1271C290.351 28.3742 291.7 29.9246 292.374 31.7783C293.015 33.6321 293.352 36.5307 293.352 40.4404V44.485Z" fill="#29292B"/>
<path d="M302.523 26.1832H320.629V34.6094H313.38V42.5974H320.157V50.5855H313.38V59.8205H321V68.2467H302.523V26.1832Z" fill="#29292B"/>
<path d="M34.1029 0C28.6407 0 23.4483 1.11226 18.4582 3.23566C3.38677 9.63955 0.284816 28.4468 12.6926 38.6256C15.2214 40.7153 18.2559 42.1646 21.0881 43.951C18.4582 44.7936 15.7271 45.6025 13.0298 46.6136C6.2527 49.1752 1.76836 53.7927 0.554549 61.1404C0.284814 62.7245 0.0825133 64.3423 0.0150795 65.9601C-0.254656 75.903 3.0496 84.5315 13.5356 89.6883C18.8965 92.3172 24.6327 94.2006 30.6344 94.2006C58.9228 94.1669 85.7453 94.4028 114 94.2006C131.061 94.0995 134.938 96.3577 144.278 86.8193C154.46 76.4045 153.596 62.1852 153.596 62.1852C153.596 62.1852 147.021 67.4769 142.806 60.5674C142.806 60.5674 139.097 57.2643 139.3 39.3671C151.707 29.1883 148.605 10.3811 133.534 3.97716C128.544 1.85376 123.351 0.0337063 117.889 0.067411M102.649 16.6838C102.481 16.6838 81.3402 16.4816 80.8008 16.6164C80.8008 38.8615 80.8008 61.1741 80.8008 83.6551C77.3954 83.6551 74.3608 83.6551 71.0228 83.6551C71.0228 75.0941 71.0228 66.5331 71.0228 57.8036C65.3247 57.8036 59.8626 57.6014 54.4679 57.871C51.2985 58.0395 48.8709 61.2752 48.8371 64.7468C48.736 70.2743 48.8034 75.8019 48.7697 81.3632C48.7697 82.2732 48.7697 82.644 48.7697 83.7225C43.0378 84.6663 37.5757 85.1044 32.3833 82.7788C26.584 80.1498 23.7181 74.0493 24.5273 66.4657C25.6399 55.9498 30.63 51.0627 41.2846 50.6919C49.8824 50.3886 58.4802 50.5571 67.1117 50.5234C68.2918 50.5234 69.5056 50.5234 70.8205 50.5234C70.9217 49.8156 71.0566 32.9969 71.0228 25.0763C70.9891 19.4813 68.1906 16.785 62.6611 16.785C58.1767 16.7512 53.6586 16.785 48.9046 16.785C48.9046 24.773 48.9046 32.4914 48.9046 40.3446C43.4087 41.0861 38.2837 40.8164 33.5634 38.2549C28.4721 35.5248 26.0445 29.0872 27.1235 21.9755C28.3373 14.1223 33.0576 9.74067 41.0822 9.33621C46.0049 9.10028 50.9613 9.23509 55.9177 9.23509L112.5 9.33621C120.558 9.74067 123.722 14.8975 124.902 22.7507C125.981 29.8624 123.554 36.3 118.463 39.0301C113.708 41.5916 108.617 41.8613 103.121 41.1198M102.885 83.554L102.616 46.9844L121.868 46.8159L122.171 80.6891C121.767 81.6665 120.418 83.7225 116.338 83.554H102.885Z" fill="#29292B"/>
</svg>
