<svg width="21" height="20" viewBox="0 0 21 20" fill="none" xmlns="http://www.w3.org/2000/svg">
<path d="M8.93751 0.746861C9.33739 -0.248936 10.7471 -0.248936 11.147 0.746861L12.9965 5.3527C13.1668 5.77675 13.5648 6.0659 14.0207 6.09682L18.9727 6.43259C20.0433 6.50518 20.4789 7.84588 19.6555 8.53391L15.8466 11.7162C15.4959 12.0092 15.3439 12.4771 15.4554 12.9203L16.6663 17.7336C16.9281 18.7743 15.7876 19.6029 14.8788 19.0323L10.6752 16.3932C10.2882 16.1503 9.79627 16.1503 9.40925 16.3932L5.20567 19.0323C4.29684 19.6029 3.15638 18.7743 3.41818 17.7336L4.62908 12.9203C4.74057 12.4771 4.58855 12.0092 4.23788 11.7162L0.429017 8.53391C-0.394472 7.84587 0.0411472 6.50518 1.11178 6.43259L6.06374 6.09682C6.51966 6.0659 6.91764 5.77675 7.08793 5.3527L8.93751 0.746861Z" fill="#FFCC00"/>
</svg>
