<svg width="156" height="169" viewBox="0 0 156 169" fill="none" xmlns="http://www.w3.org/2000/svg">
<path d="M70.998 35.5435C37.9504 35.5435 13.9711 27.7098 13.6147 27.5881C13.3017 27.4837 13.1104 27.1707 13.1452 26.849C13.1886 26.5187 13.4495 26.2665 13.7799 26.2404C72.9021 21.302 125.312 26.1883 125.834 26.2404C126.164 26.2752 126.425 26.5274 126.46 26.8577C126.495 27.1881 126.286 27.4924 125.973 27.5881C106.593 33.5525 87.6391 35.5435 70.998 35.5435ZM17.6315 27.3185C30.2384 30.7702 74.441 40.8123 122.026 27.3099C109.427 26.3361 66.1378 23.5886 17.6315 27.3185Z" fill="#29292B"/>
<path d="M77.0414 144.833C76.7023 144.833 76.4154 144.589 76.3546 144.259L69.3295 102.978L62.4522 144.25C62.4 144.589 62.1044 144.833 61.7653 144.833C61.7566 144.833 61.7479 144.833 61.7479 144.833C20.8666 143.581 0.660777 136.834 0.460805 136.764C0.191278 136.669 0 136.399 0 136.104C0 90.9011 13.0243 27.4231 13.1547 26.7884C13.2329 26.4145 13.6068 26.1711 13.972 26.2493C14.3458 26.3276 14.5893 26.6927 14.511 27.0666C14.3893 27.7013 1.48675 90.5708 1.39111 135.599C4.61675 136.599 24.3618 142.242 61.1915 143.424L68.6513 98.6827C68.7035 98.3523 68.9991 98.1001 69.3382 98.1001C69.6772 98.1001 69.9641 98.3436 70.025 98.674L77.6413 143.416C82.8754 143.242 120.774 141.781 138.198 134.86C137.737 128.409 132.903 62.053 125.104 27.0753C125.017 26.7014 125.252 26.3276 125.635 26.2493C126 26.1711 126.382 26.3971 126.461 26.7797C134.642 63.4789 139.572 134.556 139.624 135.269C139.641 135.564 139.467 135.843 139.198 135.956C120.566 143.633 77.5196 144.815 77.0849 144.824C77.0588 144.824 77.0501 144.833 77.0414 144.833Z" fill="#29292B"/>
<path d="M12.3897 37.4914C12.3289 37.4914 12.268 37.4827 12.1985 37.4653L11.7464 37.3349C11.3812 37.2219 11.1725 36.8393 11.2769 36.4741C11.3899 36.109 11.7724 35.9003 12.1376 36.0046L12.5723 36.1264C12.9375 36.2307 13.1549 36.6133 13.0505 36.9784C12.9723 37.2914 12.6941 37.4914 12.3897 37.4914Z" fill="#29292B"/>
<path d="M73.6772 45.4638C73.2947 45.4638 72.9904 45.1595 72.9817 44.777C72.9817 44.3944 73.286 44.0814 73.6685 44.0814L74.5901 44.0727C74.9727 44.0901 75.2857 44.377 75.2944 44.7596C75.3031 45.1421 74.9901 45.4551 74.6075 45.4638H73.6772ZM70.4168 45.4551C70.4081 45.4551 70.4081 45.4551 70.4168 45.4551L69.4778 45.4464C69.0953 45.4377 68.7909 45.1247 68.7909 44.7422C68.7996 44.3596 69.1039 44.064 69.4952 44.0553L70.4255 44.064C70.8081 44.064 71.1124 44.377 71.1124 44.7596C71.1037 45.1508 70.7907 45.4551 70.4168 45.4551ZM77.8592 45.3856C77.4854 45.3856 77.1724 45.09 77.1637 44.7074C77.155 44.3248 77.4506 44.0031 77.8419 43.9944L78.7635 43.9684C79.1808 43.9336 79.4677 44.2553 79.4764 44.6378C79.4851 45.0204 79.1895 45.3421 78.8069 45.3508L77.8766 45.3769C77.8766 45.3856 77.8679 45.3856 77.8592 45.3856ZM66.2174 45.3769C66.2087 45.3769 66.2 45.3769 66.2 45.3769L65.261 45.3508C64.8784 45.3421 64.5828 45.0204 64.5915 44.6378C64.6002 44.2553 64.8784 43.9423 65.3045 43.9684L66.2348 43.9944C66.6173 44.0031 66.9216 44.3248 66.9042 44.7074C66.9042 45.0813 66.5913 45.3769 66.2174 45.3769ZM82.05 45.2204C81.6848 45.2204 81.3805 44.9335 81.3544 44.5596C81.337 44.177 81.6239 43.8466 82.0152 43.8293L82.9368 43.7771C83.3194 43.7684 83.6497 44.0466 83.6671 44.4292C83.6932 44.8117 83.3976 45.1421 83.0151 45.1595L82.0847 45.2117C82.076 45.2204 82.0587 45.2204 82.05 45.2204ZM62.0354 45.2117C62.0267 45.2117 62.0093 45.2117 62.0006 45.2117L61.0703 45.1682C60.6877 45.1508 60.3921 44.8204 60.4182 44.4379C60.4356 44.0553 60.8094 43.7771 61.1485 43.7858L62.0788 43.8293C62.4614 43.8466 62.757 44.177 62.7396 44.5596C62.7048 44.9248 62.4005 45.2117 62.0354 45.2117ZM57.8446 44.9682C57.8273 44.9682 57.8099 44.9682 57.8012 44.9682L56.8709 44.9074C56.4883 44.8813 56.2014 44.5509 56.2275 44.1683C56.2536 43.7858 56.5753 43.4902 56.9665 43.525L57.8968 43.5858C58.2794 43.6119 58.5663 43.9423 58.5402 44.3248C58.5141 44.69 58.2098 44.9682 57.8446 44.9682ZM86.232 44.9508C85.8755 44.9508 85.5712 44.6726 85.5451 44.3075C85.519 43.9249 85.806 43.5945 86.1798 43.5597L87.1014 43.4902C87.484 43.4641 87.8144 43.7423 87.8492 44.1249C87.8752 44.5074 87.597 44.8378 87.2145 44.8726L86.2842 44.9421C86.2668 44.9508 86.2494 44.9508 86.232 44.9508ZM53.6626 44.6465C53.6452 44.6465 53.6191 44.6465 53.6018 44.6465L52.6715 44.5683C52.2889 44.5335 52.0107 44.1944 52.0455 43.8119C52.0802 43.4293 52.4193 43.1511 52.8019 43.1859L53.7322 43.2641C54.1147 43.2989 54.393 43.638 54.3669 44.0118C54.3234 44.377 54.0191 44.6465 53.6626 44.6465ZM90.4053 44.5857C90.0575 44.5857 89.7532 44.3161 89.7185 43.9597C89.6837 43.5771 89.9619 43.238 90.3358 43.2033L91.2574 43.1076C91.6312 43.0728 91.979 43.3424 92.0225 43.7249C92.066 44.1075 91.7877 44.4466 91.4052 44.49L90.4749 44.5857C90.4488 44.5857 90.4314 44.5857 90.4053 44.5857ZM49.4893 44.2553C49.4632 44.2553 49.4458 44.2553 49.4197 44.2553L48.4894 44.1596C48.1069 44.1162 47.8287 43.7771 47.8721 43.3945C47.9156 43.012 48.2547 42.7425 48.6372 42.7772L49.5588 42.8729C49.9414 42.9163 50.2196 43.2554 50.1761 43.638C50.1414 43.9858 49.8371 44.2553 49.4893 44.2553ZM94.57 44.1162C94.2222 44.1162 93.9266 43.864 93.8831 43.5076C93.8309 43.125 94.1005 42.7772 94.483 42.7338L95.3959 42.612C95.7785 42.5599 96.1263 42.8294 96.1784 43.2033C96.2306 43.5858 95.9611 43.9336 95.5872 43.9858L94.6569 44.1075C94.6308 44.1075 94.596 44.1162 94.57 44.1162ZM45.3247 43.7858C45.2986 43.7858 45.2725 43.7858 45.2377 43.7771L44.3074 43.6641C43.9248 43.6206 43.6553 43.2728 43.7075 42.8903C43.751 42.5077 44.1074 42.2382 44.4813 42.2903L45.4029 42.4034C45.7855 42.4468 46.055 42.7946 46.0115 43.1772C45.968 43.525 45.6637 43.7858 45.3247 43.7858ZM98.7172 43.525C98.3781 43.525 98.0825 43.2815 98.0303 42.9337C97.9695 42.5512 98.2303 42.2034 98.6129 42.1425L99.5258 41.9947C99.9083 41.9339 100.265 42.1947 100.326 42.5686C100.387 42.9511 100.134 43.2989 99.7518 43.3685L98.8302 43.5163C98.7955 43.525 98.7607 43.525 98.7172 43.525ZM41.16 43.2467C41.1252 43.2467 41.0992 43.2467 41.0644 43.238L40.1428 43.1076C39.7602 43.0555 39.4994 42.699 39.5515 42.3251C39.6037 41.9426 39.9515 41.6817 40.334 41.7339L41.2557 41.8643C41.6382 41.9165 41.899 42.2643 41.8469 42.6468C41.7947 42.9946 41.4991 43.2467 41.16 43.2467ZM102.856 42.8207C102.525 42.8207 102.238 42.5859 102.178 42.2556C102.108 41.8817 102.36 41.5165 102.734 41.447L103.647 41.2731C104.03 41.2035 104.386 41.447 104.456 41.8208C104.525 42.1947 104.282 42.5599 103.908 42.6294L102.986 42.8033C102.934 42.8207 102.899 42.8207 102.856 42.8207ZM37.0128 42.6381C36.978 42.6381 36.9432 42.6381 36.9084 42.6294L35.9868 42.4816C35.6043 42.4208 35.3521 42.0643 35.413 41.6904C35.4739 41.3079 35.8216 41.047 36.2042 41.1166L37.1258 41.2644C37.5084 41.3253 37.7605 41.6817 37.7083 42.0556C37.6388 42.3947 37.3432 42.6381 37.0128 42.6381ZM106.96 41.9947C106.638 41.9947 106.351 41.7774 106.281 41.447C106.203 41.0731 106.438 40.6993 106.812 40.621L107.716 40.421C108.09 40.3341 108.464 40.5688 108.542 40.9427C108.629 41.3166 108.394 41.6904 108.02 41.7687L107.107 41.9686C107.064 41.986 107.012 41.9947 106.96 41.9947ZM32.8742 41.9686C32.8394 41.9686 32.796 41.9686 32.7525 41.96L31.8309 41.8035C31.457 41.7339 31.2049 41.3774 31.2657 41.0036C31.3353 40.6297 31.7005 40.3776 32.0656 40.4384L32.9785 40.5949C33.3524 40.6558 33.6132 41.021 33.5437 41.3948C33.5002 41.7252 33.2046 41.9686 32.8742 41.9686ZM28.7444 41.2209C28.7009 41.2209 28.6574 41.2209 28.6139 41.2122L27.6923 41.0383C27.3185 40.9688 27.0663 40.6036 27.1446 40.2298C27.2141 39.8559 27.588 39.6125 27.9532 39.682L28.8661 39.8559C29.2399 39.9255 29.4921 40.2906 29.4225 40.6645C29.3617 40.9862 29.0661 41.2209 28.7444 41.2209ZM111.046 41.0383C110.733 41.0383 110.455 40.8297 110.376 40.5167C110.281 40.1428 110.507 39.769 110.881 39.6733L111.776 39.4473C112.15 39.3516 112.524 39.5777 112.62 39.9428C112.715 40.3167 112.498 40.6906 112.124 40.7862L111.22 41.021C111.159 41.0296 111.098 41.0383 111.046 41.0383ZM24.6319 40.4036C24.5884 40.4036 24.5362 40.395 24.4928 40.3863L23.5799 40.195C23.206 40.1167 22.9626 39.7516 23.0408 39.369C23.1191 38.9951 23.4929 38.7517 23.8668 38.83L24.7797 39.0212C25.1536 39.0995 25.397 39.4646 25.3187 39.8385C25.2405 40.1776 24.9536 40.4036 24.6319 40.4036ZM115.089 39.9428C114.785 39.9428 114.506 39.7429 114.419 39.4386C114.315 39.0734 114.524 38.6821 114.889 38.5778L115.776 38.317C116.141 38.204 116.532 38.4213 116.636 38.7865C116.749 39.1516 116.541 39.5429 116.167 39.6472L115.271 39.9081C115.219 39.9341 115.158 39.9428 115.089 39.9428ZM20.5281 39.5168C20.4759 39.5168 20.4238 39.5081 20.3716 39.4994L19.4587 39.2908C19.0848 39.2038 18.8501 38.83 18.937 38.4561C19.024 38.0822 19.3891 37.8475 19.7717 37.9344L20.6759 38.1431C21.0498 38.23 21.2845 38.5952 21.1976 38.9691C21.128 39.2995 20.8411 39.5168 20.5281 39.5168ZM119.097 38.7082C118.801 38.7082 118.532 38.5256 118.436 38.23C118.314 37.8649 118.514 37.4736 118.88 37.3519L119.758 37.0563C120.123 36.9346 120.514 37.1258 120.636 37.491C120.758 37.8562 120.566 38.2474 120.201 38.3691L119.314 38.6648C119.245 38.6995 119.167 38.7082 119.097 38.7082ZM16.4417 38.5517C16.3896 38.5517 16.3287 38.543 16.2765 38.5343L15.3636 38.3083C14.9898 38.2126 14.7637 37.8388 14.8593 37.4649C14.955 37.0911 15.3375 36.8737 15.7027 36.9606L16.6069 37.1867C16.9808 37.2823 17.2068 37.6562 17.1112 38.0301C17.0416 38.3431 16.7547 38.5517 16.4417 38.5517ZM123.053 37.3258C122.775 37.3258 122.505 37.1519 122.401 36.8737C122.27 36.5172 122.453 36.1173 122.809 35.9782L123.679 35.6565C124.035 35.5261 124.435 35.7 124.574 36.0564C124.714 36.4129 124.531 36.8128 124.175 36.952L123.296 37.2823C123.218 37.3084 123.14 37.3258 123.053 37.3258Z" fill="#29292B"/>
<path d="M126.973 35.7784C126.704 35.7784 126.443 35.6219 126.33 35.3524C126.182 34.9959 126.347 34.596 126.704 34.4482L127.095 34.283L127.669 35.5523L127.243 35.7349C127.156 35.761 127.06 35.7784 126.973 35.7784Z" fill="#29292B"/>
<path d="M55.1919 138.416H55.1832L54.2529 138.399C53.8704 138.39 53.5661 138.068 53.5748 137.686C53.5835 137.303 53.8791 136.999 54.2877 137.008L55.2093 137.025C55.5919 137.034 55.8962 137.347 55.8962 137.729C55.8788 138.112 55.5658 138.416 55.1919 138.416ZM58.4263 138.408C58.0524 138.408 57.7394 138.103 57.7307 137.729C57.722 137.347 58.0263 137.034 58.4089 137.025L59.3305 137.008C59.6956 136.99 60.0347 137.295 60.0434 137.686C60.0521 138.068 59.7565 138.39 59.3653 138.399L58.435 138.416C58.435 138.408 58.435 138.408 58.4263 138.408ZM50.9925 138.277L50.0709 138.225C49.6884 138.208 49.3927 137.877 49.4188 137.495C49.4362 137.112 49.8101 136.808 50.1492 136.843L50.9838 136.886L51.036 137.582L50.9925 138.277ZM62.5822 138.234C62.217 138.234 61.9127 137.955 61.8867 137.582C61.8606 137.199 62.1475 136.869 62.53 136.843L62.817 136.825C63.1995 136.782 63.5299 137.086 63.5647 137.46C63.5908 137.842 63.3038 138.173 62.93 138.208L62.6344 138.234C62.617 138.234 62.5996 138.234 62.5822 138.234ZM46.8714 138.025C46.854 138.025 46.8366 138.025 46.8192 138.025L45.8889 137.955C45.5063 137.929 45.2194 137.59 45.2542 137.208C45.289 136.825 45.6194 136.538 46.0019 136.573L46.9235 136.643C47.3061 136.669 47.593 137.008 47.5669 137.382C47.5321 137.747 47.2278 138.025 46.8714 138.025ZM42.7241 137.66C42.698 137.66 42.6806 137.66 42.6546 137.66L41.7329 137.564C41.3504 137.521 41.0722 137.182 41.1156 136.799C41.1504 136.417 41.4895 136.147 41.8807 136.182L42.8024 136.277C43.1849 136.312 43.4631 136.66 43.4197 137.034C43.3762 137.399 43.0719 137.66 42.7241 137.66ZM38.5769 137.216C38.5508 137.216 38.5247 137.216 38.4986 137.208L37.577 137.095C37.1944 137.051 36.9249 136.703 36.9684 136.321C37.0119 135.938 37.3596 135.66 37.7422 135.712L38.6551 135.825C39.0377 135.869 39.3072 136.217 39.2637 136.59C39.2202 136.956 38.9246 137.216 38.5769 137.216ZM34.447 136.695C34.4122 136.695 34.3861 136.695 34.3514 136.686L33.4297 136.564C33.0472 136.512 32.7864 136.164 32.8385 135.782C32.8907 135.399 33.2385 135.138 33.621 135.191L34.5339 135.312C34.9165 135.364 35.1773 135.712 35.1252 136.095C35.0817 136.443 34.7861 136.695 34.447 136.695ZM30.3258 136.112C30.2911 136.112 30.2563 136.112 30.2215 136.104L29.2999 135.964C28.9173 135.904 28.6652 135.547 28.7174 135.173C28.7782 134.799 29.126 134.539 29.5086 134.591L30.4215 134.73C30.804 134.791 31.0649 135.138 31.004 135.521C30.9518 135.86 30.6562 136.112 30.3258 136.112ZM26.2047 135.46C26.1699 135.46 26.1264 135.46 26.0916 135.451L25.1787 135.304C24.7962 135.243 24.544 134.886 24.6049 134.504C24.6658 134.121 25.0222 133.869 25.4048 133.93L26.3177 134.078C26.7003 134.139 26.9524 134.495 26.8915 134.878C26.8307 135.217 26.5351 135.46 26.2047 135.46ZM22.0922 134.765C22.0487 134.765 22.014 134.765 21.9705 134.756L21.0576 134.591C20.6837 134.521 20.4316 134.165 20.4924 133.782C20.562 133.408 20.9185 133.156 21.301 133.217L22.2139 133.382C22.5878 133.452 22.8399 133.808 22.7791 134.191C22.7182 134.53 22.4226 134.765 22.0922 134.765ZM17.9971 134.017C17.9536 134.017 17.9102 134.008 17.8667 134.008L16.9538 133.834C16.5799 133.765 16.3278 133.4 16.406 133.026C16.4756 132.652 16.8408 132.4 17.2146 132.478L18.1188 132.652C18.4927 132.721 18.7448 133.087 18.6753 133.46C18.6144 133.782 18.3275 134.017 17.9971 134.017ZM13.902 133.217C13.8586 133.217 13.8151 133.208 13.7629 133.2L12.85 133.017C12.4762 132.939 12.2327 132.574 12.311 132.2C12.3892 131.826 12.7631 131.582 13.1282 131.661L14.0325 131.843C14.4063 131.921 14.6498 132.287 14.5802 132.661C14.5193 132.991 14.2324 133.217 13.902 133.217ZM9.82435 132.382C9.78088 132.382 9.72871 132.374 9.67654 132.365L8.77232 132.174C8.39846 132.095 8.15501 131.722 8.24196 131.348C8.32021 130.974 8.69407 130.739 9.06793 130.817L9.97215 131.009C10.346 131.087 10.5895 131.452 10.5025 131.835C10.433 132.156 10.146 132.382 9.82435 132.382ZM5.74666 131.495C5.69449 131.495 5.64232 131.487 5.59016 131.478L4.68593 131.278C4.31207 131.191 4.07732 130.826 4.16427 130.452C4.25121 130.078 4.62507 129.844 4.99024 129.93L5.89446 130.13C6.26832 130.217 6.50307 130.583 6.41613 130.956C6.35527 131.278 6.06835 131.495 5.74666 131.495ZM1.68635 130.556C1.63419 130.556 1.58202 130.548 1.52116 130.539L0.608242 130.322C0.234381 130.226 0.00832593 129.852 0.103965 129.478C0.199604 129.105 0.56477 128.878 0.947325 128.974L1.85155 129.191C2.22541 129.278 2.45146 129.652 2.36452 130.026C2.27757 130.348 1.99935 130.556 1.68635 130.556Z" fill="#29292B"/>
<path d="M81.0403 138.503H80.11C79.7275 138.503 79.4145 138.19 79.4145 137.807C79.4145 137.425 79.7275 137.112 80.11 137.112H81.0316C81.4142 137.112 81.7272 137.425 81.7272 137.807C81.7272 138.19 81.4229 138.503 81.0403 138.503ZM84.2834 138.477C83.9008 138.477 83.5965 138.172 83.5878 137.79C83.5791 137.407 83.8834 137.094 84.2747 137.086L85.1963 137.068C85.5788 137.077 85.8918 137.364 85.9005 137.746C85.9092 138.129 85.6049 138.442 85.2224 138.451L84.2921 138.468C84.2921 138.477 84.2834 138.477 84.2834 138.477ZM76.8757 138.459C76.867 138.459 76.867 138.459 76.8583 138.459C76.2497 138.442 75.9193 138.433 75.9193 138.433C75.5368 138.416 75.2412 138.094 75.2585 137.712C75.2759 137.329 75.615 137.051 75.9802 137.051C75.9802 137.051 76.3019 137.068 76.8931 137.077C77.2757 137.086 77.58 137.407 77.5713 137.79C77.5626 138.155 77.2583 138.459 76.8757 138.459ZM88.448 138.364C88.0742 138.364 87.7698 138.068 87.7525 137.694C87.7351 137.312 88.0394 136.99 88.4219 136.972L89.3435 136.938C89.7261 136.938 90.0478 137.225 90.0652 137.607C90.0826 137.99 89.7783 138.311 89.3957 138.329L88.4654 138.364C88.4654 138.364 88.4567 138.364 88.448 138.364ZM92.604 138.181C92.2388 138.181 91.9345 137.894 91.9084 137.52C91.891 137.138 92.1779 136.807 92.5605 136.79L93.4821 136.738C93.8646 136.712 94.195 137.007 94.2124 137.39C94.2385 137.772 93.9429 138.103 93.5603 138.12L92.63 138.172C92.63 138.181 92.6213 138.181 92.604 138.181ZM96.7599 137.92C96.4034 137.92 96.0991 137.642 96.0643 137.277C96.0383 136.894 96.3252 136.564 96.7077 136.538L97.6206 136.468C97.9945 136.433 98.3336 136.72 98.3684 137.103C98.3944 137.485 98.1162 137.816 97.7337 137.851L96.8034 137.92C96.7947 137.92 96.7773 137.92 96.7599 137.92ZM100.916 137.572C100.559 137.572 100.255 137.303 100.229 136.946C100.194 136.564 100.472 136.225 100.855 136.19L101.777 136.103C102.168 136.068 102.498 136.346 102.533 136.729C102.568 137.112 102.29 137.451 101.907 137.485L100.985 137.572C100.959 137.572 100.933 137.572 100.916 137.572ZM105.054 137.146C104.707 137.146 104.411 136.886 104.368 136.529C104.324 136.147 104.602 135.807 104.976 135.764L105.898 135.66C106.272 135.607 106.619 135.886 106.663 136.268C106.706 136.651 106.437 136.99 106.054 137.033L105.133 137.138C105.107 137.146 105.08 137.146 105.054 137.146ZM109.184 136.633C108.845 136.633 108.55 136.381 108.497 136.033C108.445 135.651 108.715 135.303 109.089 135.251L110.002 135.129C110.375 135.077 110.732 135.338 110.784 135.72C110.836 136.103 110.575 136.451 110.193 136.503L109.271 136.633C109.254 136.633 109.219 136.633 109.184 136.633ZM113.305 136.025C112.966 136.025 112.679 135.781 112.619 135.442C112.558 135.06 112.819 134.712 113.192 134.651L114.105 134.503C114.488 134.451 114.836 134.703 114.905 135.077C114.966 135.46 114.714 135.807 114.331 135.877L113.418 136.025C113.384 136.025 113.34 136.025 113.305 136.025ZM117.409 135.321C117.079 135.321 116.792 135.086 116.731 134.755C116.661 134.382 116.914 134.016 117.287 133.947L118.192 133.773C118.566 133.703 118.931 133.947 119 134.321C119.07 134.695 118.826 135.06 118.453 135.129L117.54 135.303C117.496 135.312 117.453 135.321 117.409 135.321ZM121.487 134.503C121.165 134.503 120.878 134.277 120.809 133.956C120.73 133.582 120.965 133.208 121.339 133.13L122.235 132.938C122.608 132.851 122.982 133.086 123.061 133.46C123.148 133.834 122.913 134.208 122.539 134.286L121.626 134.486C121.583 134.503 121.53 134.503 121.487 134.503ZM125.538 133.573C125.225 133.573 124.947 133.364 124.869 133.043C124.773 132.669 124.999 132.295 125.373 132.199L126.269 131.973C126.634 131.878 127.017 132.104 127.112 132.477C127.208 132.851 126.982 133.225 126.608 133.321L125.704 133.547C125.652 133.564 125.599 133.573 125.538 133.573ZM129.573 132.504C129.268 132.504 128.99 132.304 128.903 131.999C128.799 131.634 129.016 131.252 129.381 131.139C129.677 131.052 129.973 130.973 130.268 130.886C130.642 130.782 131.025 130.991 131.129 131.356C131.233 131.721 131.025 132.112 130.66 132.217C130.364 132.304 130.06 132.391 129.764 132.477C129.694 132.495 129.634 132.504 129.573 132.504ZM133.555 131.295C133.259 131.295 132.99 131.112 132.894 130.817C132.772 130.452 132.972 130.06 133.337 129.939C133.633 129.843 133.92 129.747 134.207 129.652C134.572 129.53 134.963 129.721 135.085 130.086C135.207 130.452 135.015 130.843 134.65 130.965C134.355 131.06 134.059 131.165 133.763 131.26C133.703 131.286 133.624 131.295 133.555 131.295ZM137.485 129.921C137.206 129.921 136.937 129.747 136.833 129.469C136.693 129.113 136.876 128.713 137.241 128.574L138.102 128.243C138.458 128.104 138.858 128.287 138.997 128.643C139.137 129 138.954 129.4 138.598 129.539L137.728 129.869C137.65 129.904 137.563 129.921 137.485 129.921Z" fill="#29292B"/>
<path d="M69.1806 80.8423C68.9459 80.8423 68.7546 80.651 68.7546 80.4162C68.7546 80.1815 68.9459 79.9902 69.1806 79.9902C70.024 79.9902 70.8761 79.9815 71.7281 79.9728C71.7281 79.9728 71.7281 79.9728 71.7368 79.9728C71.9716 79.9728 72.1628 80.1641 72.1628 80.3989C72.1628 80.6336 71.9802 80.8249 71.7455 80.8249C70.8847 80.8336 70.0327 80.8336 69.1806 80.8423ZM66.6245 80.8336C65.7637 80.8249 64.9117 80.8162 64.0596 80.8075C63.8249 80.8075 63.6336 80.6075 63.6423 80.3728C63.6423 80.138 63.8683 79.938 64.077 79.9554C64.9204 79.9728 65.7724 79.9815 66.6332 79.9815C66.8679 79.9815 67.0592 80.1728 67.0592 80.4075C67.0505 80.6423 66.8592 80.8336 66.6245 80.8336ZM74.293 80.7901C74.0582 80.7901 73.8756 80.6075 73.8669 80.3728C73.8582 80.138 74.0495 79.9467 74.2843 79.938C75.1276 79.9207 75.9797 79.9033 76.8317 79.8772C77.0404 79.8511 77.2665 80.0598 77.2665 80.2945C77.2665 80.5293 77.0839 80.7292 76.8491 80.7292C75.9971 80.7466 75.145 80.7727 74.293 80.7901ZM61.5121 80.7553H61.5034C60.6427 80.7379 59.7906 80.7118 58.9473 80.6771C58.7125 80.6684 58.5299 80.4684 58.5386 80.2337C58.5473 79.9989 58.7299 79.7989 58.9821 79.825C59.8254 79.8511 60.6775 79.8772 61.5295 79.9033C61.7643 79.912 61.9469 80.1032 61.9469 80.338C61.9382 80.564 61.7469 80.7553 61.5121 80.7553ZM79.3966 80.6423C79.1705 80.6423 78.9793 80.4597 78.9706 80.2337C78.9619 79.9989 79.1445 79.7989 79.3792 79.7902C80.2226 79.7555 81.0746 79.7294 81.9267 79.6859C82.1614 79.6859 82.3614 79.8598 82.3701 80.0945C82.3788 80.3293 82.1962 80.5293 81.9615 80.538C81.1007 80.5727 80.2487 80.6075 79.4053 80.6423C79.414 80.6423 79.4053 80.6423 79.3966 80.6423ZM56.4085 80.5814C56.3998 80.5814 56.3998 80.5814 56.3911 80.5814C55.5304 80.5467 54.6783 80.5032 53.8349 80.4597C53.6002 80.451 53.4176 80.251 53.435 80.0163C53.4524 79.7815 53.6437 79.6077 53.8784 79.6163C54.7218 79.6598 55.5738 79.6946 56.4259 79.7381C56.6606 79.7468 56.8432 79.9467 56.8345 80.1815C56.8258 80.3989 56.6346 80.5814 56.4085 80.5814ZM84.5089 80.4162C84.2829 80.4162 84.0916 80.2423 84.0829 80.0163C84.0742 79.7815 84.2481 79.5816 84.4828 79.5729C85.3262 79.5294 86.1783 79.4772 87.0303 79.4251C87.2912 79.4164 87.465 79.5903 87.4824 79.825C87.4998 80.0598 87.3172 80.2597 87.0825 80.2771C86.2217 80.3293 85.3784 80.3815 84.5263 80.4249C84.5176 80.4162 84.5176 80.4162 84.5089 80.4162ZM51.3049 80.3206C51.2962 80.3206 51.2875 80.3206 51.2788 80.3206C50.418 80.2684 49.566 80.2163 48.7226 80.1554C48.4879 80.138 48.314 79.938 48.3227 79.7033C48.3401 79.4685 48.5226 79.3033 48.7748 79.3033C49.6095 79.3642 50.4615 79.4164 51.3223 79.4685C51.557 79.4859 51.7396 79.6859 51.7222 79.9207C51.7135 80.1467 51.5309 80.3206 51.3049 80.3206ZM89.6039 80.1032C89.3778 80.1032 89.1952 79.9293 89.1778 79.7033C89.1605 79.4685 89.3343 79.2686 89.5691 79.2512C90.4125 79.1903 91.2645 79.1295 92.1166 79.0599C92.3426 79.0338 92.56 79.2164 92.5774 79.4512C92.5948 79.6859 92.4209 79.8946 92.1861 79.912C91.3254 79.9815 90.482 80.0424 89.63 80.1032C89.63 80.1032 89.6213 80.1032 89.6039 80.1032ZM46.2012 79.9728C46.1925 79.9728 46.1838 79.9728 46.1665 79.9728C45.3057 79.9033 44.4536 79.8337 43.619 79.7642C43.3842 79.7468 43.2103 79.5381 43.2277 79.3033C43.2451 79.0686 43.4625 78.8947 43.6885 78.9121C44.5232 78.9817 45.3753 79.0512 46.236 79.1208C46.4708 79.1382 46.6446 79.3468 46.6273 79.5816C46.6099 79.8076 46.4273 79.9728 46.2012 79.9728ZM94.6988 79.6946C94.4815 79.6946 94.2989 79.5294 94.2728 79.3033C94.2554 79.0686 94.4293 78.8599 94.6553 78.8425C95.4987 78.7643 96.3421 78.686 97.1941 78.6078C97.4202 78.5817 97.6375 78.7556 97.6549 78.9903C97.681 79.2251 97.5071 79.4338 97.2724 79.4512C96.4203 79.5381 95.5683 79.6077 94.7249 79.6859C94.7249 79.6946 94.7162 79.6946 94.6988 79.6946ZM41.115 79.5381C41.0976 79.5381 41.0889 79.5381 41.0715 79.5381C40.2108 79.4512 39.3587 79.3729 38.524 79.286C38.2893 79.2599 38.1241 79.0512 38.1415 78.8165C38.1676 78.5817 38.3936 78.4165 38.611 78.4339C39.4457 78.5208 40.289 78.6078 41.1498 78.686C41.3845 78.7121 41.5584 78.9208 41.5323 79.1468C41.5149 79.3729 41.3323 79.5381 41.115 79.5381ZM99.7851 79.2077C99.5677 79.2077 99.3851 79.0425 99.359 78.8252C99.333 78.5904 99.5068 78.3817 99.7416 78.3557C100.585 78.2687 101.428 78.1731 102.28 78.0774C102.515 78.06 102.724 78.2165 102.75 78.4513C102.776 78.686 102.611 78.8947 102.376 78.9208C101.524 79.0164 100.672 79.1121 99.8285 79.199C99.8198 79.2077 99.8025 79.2077 99.7851 79.2077ZM36.0287 78.999C36.0114 78.999 35.994 78.999 35.9766 78.999C35.1158 78.9034 34.2638 78.7991 33.4378 78.6947C33.203 78.6687 33.0379 78.4513 33.0639 78.2165C33.09 77.9818 33.2987 77.8166 33.5421 77.8427C34.3681 77.947 35.2115 78.0427 36.0809 78.147C36.3157 78.1731 36.4809 78.3817 36.4548 78.6165C36.4287 78.8425 36.2461 78.999 36.0287 78.999ZM104.863 78.6252C104.654 78.6252 104.463 78.4687 104.445 78.2513C104.419 78.0166 104.584 77.8079 104.819 77.7731C105.662 77.6688 106.506 77.5645 107.349 77.4514C107.575 77.4253 107.793 77.5819 107.827 77.8166C107.854 78.0514 107.697 78.26 107.462 78.2948C106.61 78.4078 105.767 78.5122 104.923 78.6165C104.897 78.6252 104.88 78.6252 104.863 78.6252ZM30.9599 78.373C30.9425 78.373 30.9251 78.373 30.899 78.373C30.0296 78.26 29.1862 78.1383 28.3602 78.0253C28.1255 77.9905 27.969 77.7731 28.0038 77.5471C28.0386 77.3123 28.2472 77.1471 28.482 77.1819C29.3079 77.3036 30.1426 77.4167 31.012 77.5297C31.2468 77.5645 31.412 77.7731 31.3772 78.0079C31.3511 78.2165 31.1686 78.373 30.9599 78.373ZM109.931 77.9557C109.723 77.9557 109.54 77.7992 109.514 77.5905C109.479 77.3558 109.645 77.1384 109.879 77.1124C110.723 76.9906 111.557 76.8689 112.409 76.7472C112.635 76.7211 112.862 76.8689 112.896 77.1037C112.931 77.3384 112.775 77.5558 112.54 77.5905C111.696 77.721 110.844 77.8427 110.01 77.9557C109.975 77.9557 109.949 77.9557 109.931 77.9557ZM25.8997 77.6514C25.8736 77.6514 25.8562 77.6514 25.8389 77.6427C24.9694 77.5123 24.1261 77.3732 23.3088 77.2428C23.074 77.208 22.9175 76.9819 22.961 76.7559C23.0045 76.5211 23.2218 76.3646 23.4479 76.4081C24.2652 76.5385 25.0998 76.6776 25.9693 76.808C26.204 76.8428 26.3605 77.0602 26.3257 77.2949C26.2823 77.4949 26.0997 77.6514 25.8997 77.6514ZM114.983 77.208C114.774 77.208 114.6 77.0602 114.566 76.8515C114.531 76.6168 114.687 76.3994 114.922 76.3646C115.757 76.2342 116.6 76.0951 117.443 75.956C117.67 75.9212 117.896 76.0777 117.93 76.3038C117.965 76.5385 117.809 76.7559 117.583 76.7907C116.739 76.9298 115.896 77.0689 115.061 77.1993C115.035 77.1993 115.009 77.208 114.983 77.208ZM20.8483 76.8254C20.8222 76.8254 20.7961 76.8254 20.7787 76.8167C19.9006 76.6602 19.0659 76.5124 18.2573 76.3646C18.0226 76.3212 17.8748 76.1038 17.9182 75.869C17.9617 75.6343 18.1878 75.4865 18.4138 75.53C19.2137 75.6778 20.0484 75.8256 20.9265 75.9821C21.1613 76.0255 21.3177 76.2429 21.2743 76.4777C21.2308 76.6776 21.0569 76.8254 20.8483 76.8254ZM120.026 76.3646C119.826 76.3646 119.643 76.2168 119.608 76.0169C119.565 75.7821 119.721 75.5647 119.956 75.5213C120.791 75.3735 121.625 75.2257 122.469 75.0692C122.695 75.0257 122.921 75.1822 122.964 75.4082C123.008 75.643 122.851 75.8604 122.625 75.9038C121.782 76.0603 120.947 76.2081 120.104 76.3559C120.078 76.3559 120.052 76.3646 120.026 76.3646ZM15.8229 75.8951C15.7968 75.8951 15.7707 75.8951 15.7359 75.8864C14.8404 75.7125 14.0057 75.5387 13.2232 75.3822C12.9972 75.3387 12.8494 75.1126 12.8928 74.8779C12.9363 74.6431 13.1624 74.4953 13.3971 74.5475C14.1709 74.7127 15.0056 74.8779 15.9011 75.0518C16.1359 75.0952 16.2837 75.3213 16.2402 75.5474C16.2054 75.756 16.0228 75.8951 15.8229 75.8951ZM125.051 75.4343C124.851 75.4343 124.677 75.2952 124.634 75.0865C124.59 74.8518 124.738 74.6344 124.973 74.591L125.59 74.4692C125.834 74.4258 126.042 74.5736 126.094 74.8083C126.138 75.0431 125.99 75.2604 125.755 75.3039L125.129 75.4256C125.112 75.4256 125.077 75.4343 125.051 75.4343Z" fill="#FF0000"/>
<path d="M14.4587 77.7029L5.95557 73.3383L15.5021 72.8601L14.4587 77.7029Z" fill="#FF0000"/>
<path d="M124.496 77.5641L133.069 73.3386L123.531 72.7126L124.496 77.5641Z" fill="#FF0000"/>
<path d="M36.6143 10.8976L39.9438 0H43.0151L46.3446 10.8976H44.2302L41.2642 1.29164H41.6565L38.7383 10.8976H36.6143ZM38.6139 8.62052V6.70698H44.3641V8.63009H38.6139V8.62052Z" fill="#FF0000"/>
<path d="M94.4678 169V158.102H98.8211C99.5961 158.102 100.228 158.255 100.706 158.571C101.184 158.887 101.538 159.27 101.758 159.738C101.978 160.207 102.093 160.686 102.093 161.164C102.093 161.776 101.959 162.283 101.682 162.685C101.404 163.087 101.031 163.355 100.553 163.498V163.116C101.232 163.259 101.749 163.575 102.084 164.063C102.428 164.551 102.591 165.096 102.591 165.709C102.591 166.359 102.476 166.933 102.227 167.421C101.988 167.919 101.624 168.301 101.136 168.579C100.649 168.856 100.036 169 99.2899 169H94.4678ZM96.5631 162.36H98.802C99.0316 162.36 99.2421 162.322 99.4239 162.236C99.6056 162.159 99.7492 162.035 99.8544 161.862C99.9597 161.69 100.017 161.48 100.017 161.212C100.017 160.877 99.9118 160.599 99.7109 160.37C99.5004 160.14 99.2038 160.025 98.8115 160.025H96.5727V162.36H96.5631ZM96.5631 167.067H99.089C99.3665 167.067 99.6152 167.01 99.8257 166.885C100.036 166.761 100.218 166.598 100.333 166.388C100.457 166.177 100.515 165.919 100.515 165.632C100.515 165.374 100.467 165.144 100.352 164.943C100.247 164.742 100.084 164.58 99.8735 164.465C99.6631 164.35 99.3952 164.283 99.0794 164.283H96.5535V167.067H96.5631Z" fill="#FF0000"/>
<path d="M150.314 54.536C149.224 54.536 148.286 54.2969 147.492 53.828C146.707 53.3496 146.095 52.6895 145.664 51.8379C145.234 50.9864 145.023 49.9914 145.023 48.8624C145.023 47.7334 145.234 46.7383 145.664 45.8868C146.095 45.0353 146.698 44.3751 147.492 43.8967C148.286 43.4183 149.224 43.1887 150.314 43.1887C151.568 43.1887 152.62 43.4949 153.462 44.1168C154.314 44.7387 154.907 45.5807 155.261 46.6331L153.185 47.2072C152.984 46.547 152.639 46.0303 152.161 45.6668C151.683 45.3032 151.061 45.1214 150.305 45.1214C149.616 45.1214 149.032 45.2745 148.573 45.5807C148.114 45.8868 147.769 46.3174 147.53 46.8819C147.301 47.4368 147.186 48.097 147.186 48.8528C147.186 49.6087 147.301 50.2688 147.53 50.8238C147.76 51.3883 148.114 51.8188 148.573 52.125C149.032 52.4311 149.606 52.5842 150.305 52.5842C151.061 52.5842 151.683 52.4024 152.161 52.0293C152.639 51.6657 152.984 51.1491 153.185 50.4889L155.261 51.063C154.916 52.125 154.314 52.9574 153.462 53.5793C152.62 54.2203 151.568 54.536 150.314 54.536Z" fill="#FF0000"/>
<path d="M16.0225 92.9179V82.0203H19.5434C19.6295 82.0203 19.8017 82.0203 20.0696 82.0298C20.3375 82.0394 20.5958 82.049 20.8446 82.0872C21.7248 82.1925 22.4615 82.4987 23.0739 83.0057C23.6862 83.5128 24.1455 84.1539 24.4708 84.9289C24.7865 85.7038 24.9492 86.5554 24.9492 87.4834C24.9492 88.4115 24.7865 89.2535 24.4708 90.038C24.155 90.8226 23.6862 91.4541 23.0739 91.9611C22.4615 92.4682 21.7153 92.7744 20.8446 92.8796C20.5958 92.9083 20.3375 92.9275 20.0696 92.937C19.8017 92.9466 19.6295 92.9466 19.5434 92.9466H16.0225V92.9179ZM18.1082 90.9757H19.5434C19.6773 90.9757 19.8591 90.9757 20.0983 90.9661C20.3375 90.9565 20.5384 90.9374 20.7298 90.8991C21.2082 90.8034 21.5909 90.5834 21.8875 90.2294C22.1841 89.8849 22.4137 89.464 22.5572 88.976C22.7007 88.4881 22.7677 87.981 22.7677 87.4643C22.7677 86.9189 22.6912 86.4023 22.5477 85.9143C22.3946 85.4264 22.1745 85.015 21.8683 84.6705C21.5622 84.3357 21.189 84.1156 20.7298 84.0295C20.5384 83.9912 20.3375 83.9625 20.0983 83.9625C19.8591 83.9625 19.6869 83.9529 19.5434 83.9529H18.1082V90.9757Z" fill="#FF0000"/>
<path d="M145.129 122.591C144.9 122.591 144.718 122.409 144.709 122.189C144.68 121.347 144.642 120.505 144.613 119.673C144.603 119.443 144.785 119.242 145.015 119.233C145.216 119.185 145.445 119.405 145.455 119.635C145.493 120.467 145.522 121.309 145.55 122.16C145.56 122.39 145.378 122.591 145.149 122.601C145.139 122.591 145.129 122.591 145.129 122.591ZM144.929 117.549C144.709 117.549 144.517 117.377 144.508 117.147C144.469 116.305 144.431 115.463 144.393 114.631C144.383 114.401 144.565 114.2 144.795 114.191C145.024 114.162 145.225 114.363 145.235 114.592C145.273 115.425 145.311 116.267 145.35 117.109C145.359 117.338 145.177 117.539 144.948 117.549C144.938 117.549 144.929 117.549 144.929 117.549ZM144.689 112.507C144.469 112.507 144.278 112.334 144.268 112.105L144.134 109.588C144.125 109.359 144.297 109.158 144.536 109.148C144.766 109.129 144.967 109.311 144.976 109.55L145.11 112.066C145.12 112.296 144.948 112.497 144.709 112.507C144.699 112.507 144.689 112.507 144.689 112.507ZM144.412 107.474C144.192 107.474 144.01 107.302 143.991 107.082C143.943 106.24 143.895 105.398 143.838 104.565C143.828 104.336 144 104.135 144.23 104.116C144.479 104.097 144.661 104.278 144.68 104.508C144.728 105.34 144.785 106.182 144.833 107.024C144.842 107.254 144.67 107.455 144.441 107.464C144.431 107.474 144.421 107.474 144.412 107.474ZM144.106 102.441C143.886 102.441 143.704 102.269 143.685 102.049C143.627 101.207 143.57 100.365 143.513 99.5328C143.493 99.3031 143.675 99.1022 143.905 99.0831C144.125 99.064 144.335 99.2457 144.355 99.4754C144.412 100.308 144.469 101.15 144.527 101.992C144.546 102.221 144.364 102.422 144.134 102.441C144.115 102.441 144.106 102.441 144.106 102.441ZM143.752 97.4087C143.532 97.4087 143.35 97.2365 143.331 97.0165L143.139 94.5001C143.12 94.2705 143.292 94.0696 143.522 94.0505C143.761 94.0218 143.953 94.2035 143.972 94.4332L144.163 96.9495C144.182 97.1791 144.01 97.38 143.771 97.3992C143.771 97.4087 143.761 97.4087 143.752 97.4087ZM143.359 92.3857C143.139 92.3857 142.958 92.223 142.938 92.003L142.728 89.4867C142.709 89.257 142.881 89.0561 143.111 89.037C143.359 89.0178 143.541 89.1901 143.56 89.4197L143.771 91.936C143.79 92.1656 143.618 92.3665 143.388 92.3857C143.388 92.3857 143.379 92.3857 143.359 92.3857ZM142.929 87.3531C142.718 87.3531 142.527 87.1904 142.508 86.9703C142.431 86.1284 142.355 85.2864 142.278 84.4636C142.259 84.234 142.422 84.0235 142.661 84.0044C142.862 83.9948 143.101 84.1479 143.12 84.3871C143.197 85.2194 143.273 86.0518 143.35 86.9034C143.369 87.133 143.197 87.3435 142.967 87.3626C142.958 87.3531 142.948 87.3531 142.929 87.3531ZM142.451 82.33C142.24 82.33 142.058 82.1673 142.03 81.9473C141.943 81.1053 141.857 80.2634 141.771 79.4405C141.743 79.2109 141.915 79.0004 142.144 78.9813C142.374 78.9622 142.584 79.1248 142.604 79.3544C142.69 80.1773 142.776 81.0192 142.862 81.8612C142.881 82.0908 142.718 82.3013 142.489 82.3204C142.479 82.33 142.47 82.33 142.451 82.33ZM141.934 77.3165C141.723 77.3165 141.542 77.1539 141.513 76.9434L141.235 74.4366C141.207 74.207 141.379 73.9965 141.609 73.9678C141.848 73.9391 142.049 74.1113 142.077 74.3409L142.355 76.8477C142.384 77.0773 142.211 77.2878 141.982 77.3069C141.963 77.3165 141.953 77.3165 141.934 77.3165ZM141.36 72.303C141.149 72.303 140.968 72.1499 140.939 71.9299C140.834 71.0879 140.738 70.2555 140.633 69.4327C140.604 69.2031 140.767 68.9926 140.996 68.9639C141.207 68.916 141.436 69.0978 141.465 69.3275C141.57 70.1503 141.666 70.9827 141.771 71.8342C141.8 72.0638 141.637 72.2743 141.408 72.303C141.398 72.303 141.379 72.303 141.36 72.303ZM140.738 67.2991C140.527 67.2991 140.346 67.146 140.326 66.9355C140.212 66.0936 140.106 65.2516 139.992 64.4383C139.963 64.2087 140.126 63.9982 140.355 63.9695C140.585 63.9408 140.795 64.1035 140.824 64.3331C140.939 65.1559 141.044 65.9883 141.159 66.8398C141.188 67.0695 141.025 67.28 140.795 67.3087C140.776 67.2991 140.757 67.2991 140.738 67.2991ZM140.068 62.3047C139.867 62.3047 139.685 62.1517 139.657 61.9412C139.532 61.0896 139.418 60.2668 139.293 59.444C139.255 59.2144 139.418 59.0039 139.647 58.9656C139.867 58.9369 140.087 59.09 140.126 59.3196C140.24 60.1329 140.365 60.9653 140.489 61.8168C140.518 62.0464 140.365 62.2569 140.135 62.2952C140.106 62.3047 140.087 62.3047 140.068 62.3047ZM139.331 57.3104C139.131 57.3104 138.949 57.1573 138.92 56.9564C138.786 56.1049 138.662 55.282 138.528 54.4688C138.489 54.2391 138.643 54.0287 138.872 53.9904C139.092 53.9521 139.312 54.1052 139.351 54.3348C139.485 55.1481 139.609 55.9805 139.743 56.832C139.781 57.0616 139.618 57.2721 139.389 57.3104C139.379 57.3104 139.36 57.3104 139.331 57.3104ZM138.537 52.3352C138.336 52.3352 138.155 52.1917 138.126 51.9812C137.982 51.1296 137.839 50.3068 137.705 49.4936C137.667 49.2639 137.82 49.0439 138.049 49.0056C138.279 48.9673 138.499 49.1204 138.537 49.35C138.681 50.1537 138.815 50.9861 138.958 51.8376C138.997 52.0673 138.843 52.2873 138.614 52.3256C138.585 52.3352 138.566 52.3352 138.537 52.3352ZM137.676 47.3695C137.475 47.3695 137.303 47.226 137.265 47.0251C137.112 46.1736 136.959 45.3412 136.806 44.547C136.767 44.3174 136.911 44.0974 137.14 44.0591C137.37 44.0208 137.59 44.1643 137.628 44.394C137.781 45.1881 137.935 46.0205 138.088 46.872C138.126 47.1016 137.973 47.3217 137.753 47.3599C137.724 47.3599 137.695 47.3695 137.676 47.3695ZM136.729 42.4134C136.528 42.4134 136.356 42.2795 136.318 42.0786C136.145 41.2175 135.973 40.3946 135.811 39.6101C135.763 39.3805 135.906 39.1604 136.136 39.1126C136.375 39.0552 136.586 39.2082 136.633 39.4379C136.796 40.2224 136.968 41.0452 137.14 41.9159C137.188 42.1455 137.035 42.3656 136.815 42.4134C136.786 42.4039 136.758 42.4134 136.729 42.4134ZM135.696 37.4765C135.504 37.4765 135.332 37.3425 135.284 37.1512C135.093 36.271 134.902 35.4577 134.729 34.6923C134.682 34.4626 134.815 34.2426 135.045 34.1852C135.275 34.1373 135.495 34.2713 135.552 34.5009C135.734 35.2568 135.916 36.0796 136.107 36.9694C136.155 37.199 136.011 37.4191 135.791 37.4669C135.753 37.4669 135.724 37.4765 135.696 37.4765Z" fill="#FF0000"/>
<path d="M133.141 36.8261L133.265 27.3923L137.877 35.6206L133.141 36.8261Z" fill="#FF0000"/>
<path d="M142.583 122.027L145.405 131.03L147.463 121.826L142.583 122.027Z" fill="#FF0000"/>
<path d="M22.5686 19.7382C22.3677 19.7382 22.1859 19.5947 22.1572 19.3842C22.119 19.1546 22.272 18.9345 22.5017 18.8962C23.2767 18.7623 24.109 18.6284 24.9988 18.4944C25.2285 18.4561 25.439 18.6092 25.4772 18.8484C25.5155 19.078 25.3529 19.2885 25.1232 19.3268C24.243 19.4703 23.4106 19.6043 22.6356 19.7286C22.6165 19.7382 22.5878 19.7382 22.5686 19.7382ZM118.399 19.7382C118.37 19.7382 118.351 19.7382 118.322 19.7286L117.882 19.6521C117.653 19.6138 117.5 19.3938 117.538 19.1641C117.576 18.9345 117.796 18.7814 118.026 18.8197L118.466 18.8962C118.696 18.9345 118.849 19.1546 118.81 19.3842C118.782 19.5947 118.6 19.7382 118.399 19.7382ZM115.471 19.2407C115.452 19.2407 115.423 19.2407 115.404 19.2311C114.572 19.0972 113.749 18.9632 112.917 18.8388C112.687 18.8006 112.534 18.5901 112.563 18.3605C112.601 18.1308 112.811 17.9777 113.041 18.0065C113.873 18.1308 114.706 18.2648 115.538 18.3987C115.768 18.437 115.921 18.6475 115.883 18.8771C115.854 19.0972 115.672 19.2407 115.471 19.2407ZM27.5439 18.9537C27.3429 18.9537 27.1612 18.8006 27.1324 18.5901C27.0942 18.3605 27.2568 18.15 27.4865 18.1117C28.2901 17.9969 29.1225 17.8725 29.9932 17.7577C30.2133 17.7386 30.4333 17.8821 30.4716 18.1213C30.5003 18.3509 30.3472 18.5614 30.108 18.5997C29.2469 18.7145 28.4145 18.8388 27.6108 18.9537C27.5917 18.9537 27.5726 18.9537 27.5439 18.9537ZM110.496 18.4848C110.477 18.4848 110.458 18.4848 110.439 18.4848C109.606 18.37 108.774 18.2552 107.941 18.1404C107.712 18.1117 107.549 17.9012 107.578 17.6716C107.607 17.442 107.827 17.2697 108.047 17.308C108.879 17.4133 109.712 17.5281 110.544 17.6524C110.774 17.6811 110.936 17.9012 110.898 18.1308C110.879 18.3318 110.697 18.4848 110.496 18.4848ZM32.5478 18.2648C32.3373 18.2648 32.1555 18.1117 32.1364 17.9012C32.1077 17.6716 32.2703 17.4611 32.4999 17.4324C33.3132 17.3271 34.1456 17.2219 35.0067 17.1167C35.2267 17.0975 35.4468 17.2506 35.4755 17.4802C35.5042 17.7099 35.3416 17.9203 35.1119 17.949C34.2508 18.0543 33.4184 18.15 32.6148 18.2552C32.5861 18.2648 32.5669 18.2648 32.5478 18.2648ZM105.492 17.8247C105.473 17.8247 105.454 17.8247 105.444 17.8247C104.612 17.7194 103.78 17.6237 102.947 17.5281C102.718 17.4994 102.545 17.2984 102.574 17.0592C102.603 16.8296 102.813 16.667 103.043 16.6861C103.875 16.7818 104.708 16.8775 105.55 16.9827C105.779 17.0114 105.942 17.2219 105.913 17.4515C105.884 17.6716 105.703 17.8247 105.492 17.8247ZM37.5517 17.662C37.3412 17.662 37.1594 17.4994 37.1307 17.2889C37.102 17.0592 37.2742 16.8488 37.5039 16.8201C38.3267 16.7339 39.1591 16.6383 40.0106 16.5522C40.2498 16.5235 40.4507 16.6957 40.4699 16.9253C40.4986 17.1549 40.3263 17.3654 40.0967 17.3845C39.2452 17.4707 38.4128 17.5663 37.59 17.6524C37.59 17.662 37.5708 17.662 37.5517 17.662ZM100.488 17.2602C100.469 17.2602 100.46 17.2602 100.44 17.2602C99.5984 17.1741 98.766 17.0879 97.9337 17.0114C97.704 16.9923 97.5318 16.7818 97.5509 16.5522C97.5701 16.3225 97.7901 16.1599 98.0102 16.1694C98.8426 16.246 99.6845 16.3321 100.527 16.4182C100.756 16.4469 100.928 16.6478 100.9 16.8775C100.881 17.0975 100.699 17.2602 100.488 17.2602ZM42.5748 17.1454C42.3643 17.1454 42.1729 16.9827 42.1538 16.7626C42.1346 16.533 42.2973 16.3225 42.5365 16.3034C43.3593 16.2269 44.2013 16.1503 45.0528 16.0738C45.292 16.0451 45.4929 16.2269 45.5121 16.4565C45.5312 16.6861 45.359 16.8966 45.1293 16.9157C44.2778 16.9923 43.4454 17.0688 42.6226 17.1454C42.6035 17.1454 42.5843 17.1454 42.5748 17.1454ZM95.4652 16.7913C95.4556 16.7913 95.446 16.7913 95.4269 16.7913C94.5849 16.7244 93.7525 16.6574 92.9202 16.5904C92.6905 16.5713 92.5183 16.3704 92.5279 16.1407C92.547 15.9111 92.7288 15.758 92.9776 15.7485C93.81 15.8154 94.6519 15.8824 95.4939 15.9494C95.7235 15.9685 95.8957 16.1694 95.8766 16.3991C95.867 16.6287 95.6852 16.7913 95.4652 16.7913ZM47.5978 16.7148C47.3778 16.7148 47.196 16.5522 47.1768 16.3225C47.1577 16.0929 47.3299 15.892 47.5596 15.8728C48.3824 15.8059 49.2243 15.7485 50.0759 15.6911C50.3342 15.6719 50.5064 15.8537 50.5255 16.0833C50.5447 16.313 50.3629 16.5139 50.1333 16.533C49.2817 16.5904 48.4493 16.6574 47.617 16.7148C47.6265 16.7148 47.6074 16.7148 47.5978 16.7148ZM90.4421 16.4182C90.4325 16.4182 90.423 16.4182 90.4134 16.4182C89.5715 16.3608 88.7295 16.313 87.8971 16.2651C87.6675 16.2556 87.4857 16.0546 87.5048 15.825C87.5144 15.5954 87.6962 15.3945 87.9449 15.4327C88.7773 15.4806 89.6193 15.5284 90.4613 15.5858C90.6909 15.605 90.8727 15.7963 90.8535 16.0355C90.844 16.246 90.6622 16.4182 90.4421 16.4182ZM52.6304 16.3704C52.4104 16.3704 52.2286 16.1982 52.2095 15.9781C52.1999 15.7485 52.3721 15.5475 52.6017 15.538C53.4341 15.4901 54.2761 15.4423 55.1276 15.3945C55.3573 15.3658 55.5582 15.5571 55.5677 15.7963C55.5773 16.0259 55.4051 16.2269 55.1659 16.2364C54.3144 16.2843 53.482 16.3321 52.6496 16.3799C52.6496 16.3704 52.64 16.3704 52.6304 16.3704ZM85.3999 16.1312C85.3904 16.1312 85.3904 16.1312 85.3808 16.1312C84.5388 16.0929 83.6969 16.0546 82.8645 16.0259C82.6348 16.0164 82.4531 15.825 82.4626 15.5858C82.4722 15.3562 82.6827 15.1744 82.9027 15.184C83.7351 15.2222 84.5771 15.2509 85.4286 15.2988C85.6583 15.3084 85.84 15.5093 85.8305 15.7389C85.8113 15.9494 85.6295 16.1312 85.3999 16.1312ZM57.6726 16.1025C57.4526 16.1025 57.2612 15.9303 57.2517 15.7006C57.2421 15.471 57.4239 15.2701 57.6535 15.2605C58.4859 15.2222 59.3279 15.184 60.1794 15.1553C60.4377 15.1361 60.6099 15.3275 60.6195 15.5571C60.6291 15.7867 60.4473 15.9877 60.2177 15.9972C59.3661 16.0259 58.5337 16.0642 57.7013 16.1025C57.6822 16.1025 57.6726 16.1025 57.6726 16.1025ZM80.3673 15.9303H80.3577C79.5158 15.9016 78.6738 15.8824 77.8414 15.8633C77.6118 15.8537 77.43 15.6624 77.43 15.4327C77.4396 15.2031 77.6118 15.05 77.8605 15.0213C78.6929 15.0405 79.5349 15.0596 80.3864 15.0883C80.6161 15.0979 80.7978 15.2892 80.7978 15.5188C80.7787 15.7485 80.5874 15.9303 80.3673 15.9303ZM62.7148 15.9111C62.4852 15.9111 62.3034 15.7293 62.2939 15.4997C62.2843 15.2701 62.4661 15.0692 62.7053 15.0692C63.5377 15.05 64.3796 15.0213 65.2311 15.0118H65.2407C65.4703 15.0118 65.6521 15.1935 65.6617 15.4232C65.6617 15.6528 65.4799 15.8441 65.2503 15.8537C64.3988 15.8728 63.5664 15.892 62.734 15.9111C62.7148 15.9111 62.7148 15.9111 62.7148 15.9111ZM75.3155 15.8154C74.464 15.8059 73.6221 15.7963 72.7897 15.7963C72.56 15.7963 72.3687 15.605 72.3687 15.3753C72.3687 15.1457 72.56 14.9543 72.7897 14.9543C73.6221 14.9543 74.464 14.9639 75.3155 14.9735C75.5452 14.9735 75.7365 15.1648 75.727 15.404C75.7365 15.6337 75.5452 15.8154 75.3155 15.8154ZM67.757 15.8154C67.5274 15.8154 67.336 15.6337 67.336 15.404C67.336 15.1744 67.5178 14.983 67.7475 14.9735C68.5799 14.9639 69.4218 14.9543 70.2733 14.9543C70.503 14.9543 70.6943 15.1457 70.6943 15.3753C70.6943 15.605 70.503 15.7963 70.2733 15.7963C69.4314 15.7963 68.5894 15.8059 67.757 15.8154Z" fill="#FF0000"/>
<path d="M24.6663 21.4507L15.2612 20.714L23.7669 16.6477L24.6663 21.4507Z" fill="#FF0000"/>
<path d="M116.312 21.47L125.717 20.7141L117.192 16.667L116.312 21.47Z" fill="#FF0000"/>
<path d="M96.85 152.629C96.6204 152.629 96.429 152.438 96.429 152.208C96.429 151.979 96.6204 151.787 96.85 151.787C97.6728 151.787 98.5052 151.778 99.3663 151.759C99.6151 151.72 99.7873 151.94 99.7969 152.17C99.7969 152.4 99.6151 152.591 99.3855 152.601C98.5148 152.62 97.6728 152.629 96.85 152.629ZM94.3241 152.62C93.4439 152.61 92.6019 152.591 91.7887 152.572C91.5591 152.562 91.3773 152.371 91.3773 152.141C91.3868 151.912 91.5878 151.73 91.8078 151.73C92.6211 151.749 93.4535 151.768 94.3241 151.778C94.5538 151.778 94.7451 151.969 94.7355 152.199C94.7451 152.438 94.5538 152.62 94.3241 152.62ZM101.892 152.524C101.663 152.524 101.481 152.342 101.471 152.122C101.462 151.893 101.643 151.692 101.873 151.682C102.696 151.653 103.538 151.615 104.38 151.567C104.619 151.558 104.81 151.73 104.82 151.969C104.829 152.199 104.657 152.4 104.418 152.409C103.567 152.457 102.725 152.495 101.892 152.524ZM89.2819 152.486C89.2724 152.486 89.2724 152.486 89.2628 152.486C88.373 152.447 87.531 152.409 86.7369 152.361C86.5073 152.352 86.3255 152.151 86.3446 151.921C86.3542 151.692 86.5456 151.5 86.7848 151.529C87.5693 151.577 88.4113 151.615 89.3011 151.653C89.5307 151.663 89.7125 151.854 89.7029 152.093C89.6934 152.314 89.5116 152.486 89.2819 152.486ZM106.925 152.266C106.705 152.266 106.523 152.093 106.504 151.873C106.485 151.644 106.667 151.443 106.896 151.424C107.719 151.366 108.561 151.299 109.403 151.232C109.613 151.213 109.843 151.385 109.862 151.615C109.881 151.845 109.709 152.055 109.479 152.074C108.628 152.151 107.786 152.218 106.954 152.275C106.944 152.266 106.934 152.266 106.925 152.266ZM111.957 151.826C111.747 151.826 111.565 151.663 111.536 151.452C111.508 151.223 111.68 151.012 111.91 150.993C112.732 150.907 113.565 150.811 114.407 150.706C114.627 150.668 114.847 150.84 114.876 151.07C114.904 151.299 114.742 151.51 114.512 151.539C113.67 151.644 112.828 151.739 111.996 151.826C111.986 151.826 111.967 151.826 111.957 151.826ZM116.961 151.213C116.76 151.213 116.579 151.06 116.55 150.85C116.512 150.62 116.674 150.41 116.904 150.371C117.727 150.256 118.559 150.123 119.392 149.989C119.621 149.95 119.832 150.103 119.87 150.333C119.908 150.563 119.755 150.783 119.526 150.811C118.684 150.945 117.851 151.079 117.028 151.194C117 151.213 116.981 151.213 116.961 151.213ZM121.937 150.4C121.736 150.4 121.563 150.256 121.525 150.056C121.487 149.826 121.63 149.606 121.86 149.568C122.683 149.415 123.506 149.252 124.329 149.08C124.558 149.032 124.778 149.175 124.826 149.405C124.874 149.635 124.73 149.855 124.501 149.902C123.668 150.075 122.846 150.237 122.013 150.39C121.984 150.39 121.965 150.4 121.937 150.4ZM126.874 149.367C126.682 149.367 126.51 149.233 126.462 149.041C126.414 148.812 126.548 148.592 126.778 148.534C127.591 148.343 128.404 148.142 129.218 147.932C129.447 147.874 129.677 148.008 129.734 148.228C129.792 148.448 129.658 148.678 129.438 148.745C128.615 148.955 127.802 149.156 126.979 149.348C126.941 149.367 126.902 149.367 126.874 149.367ZM131.753 148.104C131.571 148.104 131.399 147.979 131.351 147.798C131.284 147.578 131.418 147.338 131.638 147.281C132.059 147.157 132.48 147.032 132.901 146.908C133.121 146.841 133.36 146.965 133.427 147.185C133.494 147.405 133.37 147.644 133.15 147.711C132.729 147.836 132.298 147.96 131.877 148.085C131.83 148.094 131.791 148.104 131.753 148.104Z" fill="#FF0000"/>
<path d="M88.239 154.457L79.3506 151.29L88.6313 149.587L88.239 154.457Z" fill="#FF0000"/>
<path d="M132.219 150.084L140.065 144.851L130.65 145.463L132.219 150.084Z" fill="#FF0000"/>
</svg>
