<svg width="377" height="136" viewBox="0 0 377 136" fill="none" xmlns="http://www.w3.org/2000/svg">
<path d="M134.081 17L139.531 4.77061H142.327L147.795 17H144.825L140.353 6.2032H141.471L136.981 17H134.081ZM136.806 14.3794L137.557 12.2305H143.847L144.615 14.3794H136.806Z" fill="#FF0000"/>
<path d="M142.619 67.2278V54.9984H148.594C150.131 54.9984 151.284 55.2896 152.053 55.8719C152.833 56.4543 153.224 57.223 153.224 58.178C153.224 58.8186 153.066 59.3777 152.752 59.8552C152.437 60.3211 152.007 60.6821 151.459 60.9384C150.912 61.1946 150.283 61.3227 149.572 61.3227L149.904 60.6064C150.673 60.6064 151.354 60.7346 151.948 60.9908C152.542 61.2354 153.002 61.6023 153.328 62.0914C153.666 62.5806 153.835 63.1804 153.835 63.8909C153.835 64.9391 153.422 65.7603 152.595 66.3543C151.768 66.9366 150.551 67.2278 148.943 67.2278H142.619ZM145.432 65.0964H148.734C149.467 65.0964 150.021 64.9799 150.393 64.747C150.778 64.5024 150.97 64.118 150.97 63.5939C150.97 63.0814 150.778 62.7029 150.393 62.4583C150.021 62.2021 149.467 62.074 148.734 62.074H145.222V60.0124H148.245C148.932 60.0124 149.456 59.896 149.817 59.663C150.19 59.4184 150.376 59.0516 150.376 58.5624C150.376 58.0849 150.19 57.7296 149.817 57.4967C149.456 57.2521 148.932 57.1298 148.245 57.1298H145.432V65.0964Z" fill="#FF0000"/>
<path d="M71.0689 25.7499C37.9883 25.7499 13.9852 17.9084 13.6283 17.7866C13.315 17.6821 13.1236 17.3688 13.1584 17.0468C13.2019 16.7161 13.463 16.4637 13.7937 16.4376C72.9748 11.4942 125.437 16.3854 125.959 16.4376C126.29 16.4724 126.551 16.7248 126.586 17.0555C126.621 17.3862 126.412 17.6908 126.099 17.7866C106.699 23.7569 87.7266 25.7499 71.0689 25.7499ZM17.6492 17.5168C30.2687 20.9719 74.5153 31.024 122.147 17.5081C109.537 16.5333 66.2038 13.7831 17.6492 17.5168Z" fill="#29292B"/>
<path d="M77.1183 135.148C76.7788 135.148 76.4916 134.905 76.4307 134.574L69.3986 93.2515L62.5144 134.565C62.4622 134.905 62.1663 135.148 61.8269 135.148C61.8182 135.148 61.8095 135.148 61.8095 135.148C20.8875 133.895 0.661436 127.141 0.461265 127.072C0.191468 126.976 0 126.706 0 126.41C0 81.1629 13.0373 17.6215 13.1678 16.9862C13.2461 16.6119 13.6204 16.3683 13.9859 16.4466C14.3601 16.5249 14.6038 16.8904 14.5255 17.2647C14.4036 17.9 1.48823 80.8322 1.3925 125.906C4.62135 126.906 24.3861 132.555 61.2525 133.738L68.7198 88.9522C68.772 88.6215 69.0679 88.3691 69.4073 88.3691C69.7467 88.3691 70.0339 88.6128 70.0949 88.9435L77.7188 133.73C82.9581 133.556 120.895 132.094 138.336 125.166C137.875 118.708 133.036 52.286 125.229 17.2734C125.142 16.8992 125.377 16.5249 125.76 16.4466C126.125 16.3683 126.508 16.5945 126.587 16.9775C134.776 53.7133 139.711 124.861 139.763 125.575C139.781 125.871 139.607 126.149 139.337 126.262C120.686 133.947 77.5969 135.131 77.1618 135.14C77.1357 135.14 77.127 135.148 77.1183 135.148Z" fill="#29292B"/>
<path d="M12.4006 27.6996C12.3397 27.6996 12.2788 27.6909 12.2092 27.6735L11.7566 27.5429C11.3911 27.4298 11.1822 27.0468 11.2866 26.6813C11.3998 26.3158 11.7827 26.1069 12.1483 26.2113L12.5834 26.3332C12.9489 26.4376 13.1665 26.8205 13.0621 27.1861C12.9838 27.4994 12.7053 27.6996 12.4006 27.6996Z" fill="#29292B"/>
<path d="M73.7466 35.6794C73.3637 35.6794 73.0591 35.3748 73.0504 34.9919C73.0504 34.609 73.355 34.2957 73.7379 34.2957L74.6605 34.2869C75.0434 34.3044 75.3567 34.5916 75.3654 34.9745C75.3741 35.3574 75.0608 35.6707 74.6779 35.6794H73.7466ZM70.483 35.6707C70.4743 35.6707 70.4743 35.6707 70.483 35.6707L69.543 35.662C69.1601 35.6533 68.8555 35.34 68.8555 34.9571C68.8642 34.5742 69.1688 34.2782 69.5605 34.2695L70.4917 34.2782C70.8746 34.2782 71.1792 34.5916 71.1792 34.9745C71.1705 35.3661 70.8572 35.6707 70.483 35.6707ZM77.9328 35.6011C77.5586 35.6011 77.2453 35.3052 77.2366 34.9223C77.2279 34.5393 77.5238 34.2173 77.9154 34.2086L78.838 34.1825C79.2557 34.1477 79.5429 34.4697 79.5516 34.8527C79.5603 35.2356 79.2644 35.5576 78.8815 35.5663L77.9502 35.5924C77.9502 35.6011 77.9416 35.6011 77.9328 35.6011ZM66.2794 35.5924C66.2707 35.5924 66.262 35.5924 66.262 35.5924L65.322 35.5663C64.9391 35.5576 64.6432 35.2356 64.6519 34.8527C64.6606 34.4697 64.9391 34.1564 65.3656 34.1825L66.2968 34.2086C66.6797 34.2173 66.9843 34.5393 66.9669 34.9223C66.9669 35.2965 66.6536 35.5924 66.2794 35.5924ZM82.1277 35.4358C81.7622 35.4358 81.4576 35.1486 81.4315 34.7743C81.4141 34.3914 81.7013 34.0607 82.0929 34.0433L83.0155 33.991C83.3984 33.9823 83.7291 34.2608 83.7465 34.6438C83.7726 35.0267 83.4767 35.3574 83.0938 35.3748L82.1626 35.4271C82.1539 35.4358 82.1365 35.4358 82.1277 35.4358ZM62.0932 35.4271C62.0845 35.4271 62.0671 35.4271 62.0584 35.4271L61.1271 35.3835C60.7442 35.3661 60.4483 35.0354 60.4744 34.6525C60.4918 34.2695 60.866 33.991 61.2055 33.9997L62.1367 34.0433C62.5196 34.0607 62.8155 34.3914 62.7981 34.7743C62.7633 35.1399 62.4587 35.4271 62.0932 35.4271ZM57.8983 35.1834C57.8809 35.1834 57.8635 35.1834 57.8548 35.1834L56.9235 35.1224C56.5406 35.0963 56.2534 34.7656 56.2795 34.3827C56.3056 33.9997 56.6276 33.7038 57.0193 33.7387L57.9505 33.7996C58.3334 33.8257 58.6206 34.1564 58.5945 34.5393C58.5684 34.9049 58.2638 35.1834 57.8983 35.1834ZM86.3139 35.166C85.9571 35.166 85.6525 34.8875 85.6264 34.5219C85.6003 34.139 85.8875 33.8083 86.2617 33.7735L87.1842 33.7038C87.5672 33.6777 87.8979 33.9562 87.9327 34.3392C87.9588 34.7221 87.6803 35.0528 87.2974 35.0876L86.3662 35.1573C86.3488 35.166 86.3313 35.166 86.3139 35.166ZM53.7121 34.8614C53.6947 34.8614 53.6686 34.8614 53.6512 34.8614L52.7199 34.783C52.337 34.7482 52.0585 34.4088 52.0933 34.0259C52.1281 33.6429 52.4675 33.3644 52.8505 33.3992L53.7817 33.4776C54.1646 33.5124 54.4431 33.8518 54.417 34.226C54.3735 34.5916 54.0689 34.8614 53.7121 34.8614ZM90.4914 34.8004C90.1433 34.8004 89.8387 34.5306 89.8039 34.1738C89.7691 33.7909 90.0476 33.4514 90.4218 33.4166L91.3443 33.3209C91.7186 33.2861 92.0667 33.5559 92.1102 33.9388C92.1537 34.3218 91.8752 34.6612 91.4923 34.7047L90.5611 34.8004C90.535 34.8004 90.5175 34.8004 90.4914 34.8004ZM49.5346 34.4697C49.5085 34.4697 49.4911 34.4697 49.465 34.4697L48.5337 34.374C48.1508 34.3305 47.8723 33.991 47.9158 33.6081C47.9593 33.2252 48.2987 32.9554 48.6817 32.9902L49.6042 33.0859C49.9872 33.1294 50.2657 33.4689 50.2221 33.8518C50.1873 34.1999 49.8827 34.4697 49.5346 34.4697ZM94.6602 34.3305C94.3121 34.3305 94.0162 34.0781 93.9727 33.7212C93.9205 33.3383 94.1903 32.9902 94.5732 32.9467L95.487 32.8248C95.87 32.7726 96.2181 33.0424 96.2703 33.4166C96.3225 33.7996 96.0527 34.1477 95.6785 34.1999L94.7473 34.3218C94.7211 34.3218 94.6863 34.3305 94.6602 34.3305ZM45.3658 33.9997C45.3397 33.9997 45.3136 33.9997 45.2788 33.991L44.3475 33.8779C43.9646 33.8344 43.6948 33.4863 43.747 33.1033C43.7905 32.7204 44.1474 32.4506 44.5216 32.5028L45.4441 32.6159C45.8271 32.6595 46.0969 33.0076 46.0533 33.3905C46.0098 33.7387 45.7052 33.9997 45.3658 33.9997ZM98.8116 33.7387C98.4722 33.7387 98.1763 33.495 98.1241 33.1468C98.0631 32.7639 98.3242 32.4158 98.7072 32.3549L99.621 32.2069C100.004 32.146 100.361 32.4071 100.422 32.7813C100.483 33.1642 100.23 33.5124 99.8473 33.582L98.9248 33.7299C98.8899 33.7387 98.8551 33.7387 98.8116 33.7387ZM41.197 33.4602C41.1622 33.4602 41.1361 33.4602 41.1013 33.4514L40.1787 33.3209C39.7958 33.2687 39.5347 32.9119 39.5869 32.5376C39.6392 32.1547 39.9873 31.8936 40.3702 31.9458L41.2927 32.0764C41.6757 32.1286 41.9368 32.4767 41.8846 32.8596C41.8323 33.2078 41.5364 33.4602 41.197 33.4602ZM102.954 33.0337C102.624 33.0337 102.336 32.7987 102.275 32.468C102.206 32.0938 102.458 31.7282 102.832 31.6586L103.746 31.4845C104.129 31.4149 104.486 31.6586 104.556 32.0328C104.625 32.4071 104.382 32.7726 104.007 32.8422L103.085 33.0163C103.033 33.0337 102.998 33.0337 102.954 33.0337ZM37.0456 32.8509C37.0108 32.8509 36.976 32.8509 36.9412 32.8422L36.0187 32.6943C35.6357 32.6334 35.3833 32.2765 35.4443 31.9023C35.5052 31.5194 35.8533 31.2583 36.2362 31.3279L37.1588 31.4758C37.5417 31.5368 37.7941 31.8936 37.7419 32.2678C37.6723 32.6072 37.3763 32.8509 37.0456 32.8509ZM107.062 32.2069C106.74 32.2069 106.453 31.9893 106.383 31.6586C106.305 31.2844 106.54 30.9101 106.914 30.8318L107.819 30.6316C108.194 30.5446 108.568 30.7796 108.646 31.1538C108.733 31.5281 108.498 31.9023 108.124 31.9806L107.21 32.1808C107.167 32.1982 107.114 32.2069 107.062 32.2069ZM32.9029 32.1808C32.8681 32.1808 32.8246 32.1808 32.7811 32.1721L31.8586 32.0154C31.4843 31.9458 31.2319 31.589 31.2929 31.2147C31.3625 30.8405 31.728 30.5881 32.0936 30.649L33.0074 30.8057C33.3816 30.8666 33.6427 31.2322 33.5731 31.6064C33.5296 31.9371 33.2337 32.1808 32.9029 32.1808ZM28.769 31.4323C28.7255 31.4323 28.6819 31.4323 28.6384 31.4236L27.7159 31.2496C27.3417 31.1799 27.0893 30.8144 27.1676 30.4402C27.2372 30.0659 27.6115 29.8223 27.977 29.8919L28.8908 30.0659C29.265 30.1356 29.5174 30.5011 29.4478 30.8753C29.3869 31.1973 29.091 31.4323 28.769 31.4323ZM111.153 31.2496C110.839 31.2496 110.561 31.0407 110.482 30.7274C110.387 30.3531 110.613 29.9789 110.987 29.8832L111.884 29.6569C112.258 29.5612 112.632 29.7874 112.728 30.153C112.824 30.5272 112.606 30.9014 112.232 30.9972L111.327 31.2322C111.266 31.2409 111.205 31.2496 111.153 31.2496ZM24.6524 30.6142C24.6089 30.6142 24.5567 30.6055 24.5131 30.5968L23.5993 30.4054C23.2251 30.327 22.9814 29.9615 23.0597 29.5786C23.1381 29.2043 23.5123 28.9606 23.8865 29.039L24.8003 29.2304C25.1746 29.3088 25.4183 29.6743 25.3399 30.0485C25.2616 30.388 24.9744 30.6142 24.6524 30.6142ZM115.2 30.153C114.895 30.153 114.616 29.9528 114.529 29.6482C114.425 29.2827 114.634 28.891 114.999 28.7866L115.887 28.5255C116.253 28.4123 116.644 28.6299 116.749 28.9955C116.862 29.361 116.653 29.7526 116.279 29.8571L115.382 30.1182C115.33 30.1443 115.269 30.153 115.2 30.153ZM20.5445 29.7265C20.4923 29.7265 20.4401 29.7178 20.3879 29.7091L19.474 29.5002C19.0998 29.4132 18.8648 29.039 18.9519 28.6647C19.0389 28.2905 19.4044 28.0555 19.7874 28.1426L20.6925 28.3514C21.0667 28.4385 21.3017 28.804 21.2147 29.1782C21.145 29.5089 20.8578 29.7265 20.5445 29.7265ZM119.212 28.9171C118.916 28.9171 118.646 28.7344 118.55 28.4385C118.428 28.0729 118.629 27.6813 118.994 27.5594L119.873 27.2635C120.239 27.1417 120.63 27.3332 120.752 27.6987C120.874 28.0642 120.683 28.4559 120.317 28.5777L119.429 28.8736C119.36 28.9084 119.281 28.9171 119.212 28.9171ZM16.4541 28.7605C16.4018 28.7605 16.3409 28.7518 16.2887 28.7431L15.3749 28.5168C15.0006 28.4211 14.7744 28.0468 14.8701 27.6726C14.9658 27.2983 15.3488 27.0808 15.7143 27.1678L16.6194 27.3941C16.9937 27.4898 17.2199 27.8641 17.1242 28.2383C17.0546 28.5516 16.7674 28.7605 16.4541 28.7605ZM123.172 27.5333C122.893 27.5333 122.623 27.3593 122.519 27.0808C122.388 26.7239 122.571 26.3236 122.928 26.1844L123.798 25.8623C124.155 25.7318 124.555 25.9059 124.695 26.2627C124.834 26.6195 124.651 27.0199 124.294 27.1591L123.415 27.4898C123.337 27.5159 123.259 27.5333 123.172 27.5333Z" fill="#29292B"/>
<path d="M127.098 25.9852C126.828 25.9852 126.567 25.8286 126.454 25.5588C126.306 25.2019 126.471 24.8016 126.828 24.6536L127.219 24.4883L127.794 25.7589L127.367 25.9417C127.28 25.9678 127.185 25.9852 127.098 25.9852Z" fill="#29292B"/>
<path d="M55.2445 128.726H55.2357L54.3045 128.709C53.9216 128.7 53.617 128.378 53.6257 127.995C53.6344 127.612 53.9303 127.308 54.3393 127.316L55.2619 127.334C55.6448 127.342 55.9494 127.656 55.9494 128.039C55.932 128.422 55.6187 128.726 55.2445 128.726ZM58.482 128.718C58.1078 128.718 57.7945 128.413 57.7858 128.039C57.7771 127.656 58.0817 127.342 58.4646 127.334L59.3871 127.316C59.7527 127.299 60.0921 127.604 60.1008 127.995C60.1095 128.378 59.8136 128.7 59.4219 128.709L58.4907 128.726C58.4907 128.718 58.4907 128.718 58.482 128.718ZM51.0409 128.587L50.1183 128.535C49.7354 128.517 49.4395 128.187 49.4656 127.804C49.483 127.421 49.8572 127.116 50.1966 127.151L51.0321 127.194L51.0844 127.891L51.0409 128.587ZM62.6421 128.543C62.2766 128.543 61.972 128.265 61.9458 127.891C61.9197 127.508 62.2069 127.177 62.5899 127.151L62.8771 127.134C63.26 127.09 63.5907 127.395 63.6255 127.769C63.6517 128.152 63.3645 128.483 62.9902 128.517L62.6943 128.543C62.6769 128.543 62.6595 128.543 62.6421 128.543ZM46.9156 128.335C46.8982 128.335 46.8808 128.335 46.8634 128.335L45.9321 128.265C45.5492 128.239 45.262 127.899 45.2968 127.516C45.3316 127.134 45.6623 126.846 46.0453 126.881L46.9678 126.951C47.3507 126.977 47.6379 127.316 47.6118 127.691C47.577 128.056 47.2724 128.335 46.9156 128.335ZM42.7642 127.969C42.7381 127.969 42.7207 127.969 42.6946 127.969L41.772 127.873C41.3891 127.83 41.1106 127.49 41.1541 127.107C41.1889 126.725 41.5283 126.455 41.92 126.49L42.8425 126.585C43.2255 126.62 43.504 126.968 43.4604 127.342C43.4169 127.708 43.1123 127.969 42.7642 127.969ZM38.6128 127.525C38.5867 127.525 38.5606 127.525 38.5345 127.516L37.612 127.403C37.229 127.36 36.9592 127.012 37.0027 126.629C37.0462 126.246 37.3944 125.967 37.7773 126.02L38.6911 126.133C39.0741 126.176 39.3439 126.524 39.3004 126.899C39.2568 127.264 38.9609 127.525 38.6128 127.525ZM34.4788 127.003C34.444 127.003 34.4179 127.003 34.3831 126.994L33.4606 126.872C33.0776 126.82 32.8165 126.472 32.8688 126.089C32.921 125.706 33.2691 125.445 33.652 125.497L34.5659 125.619C34.9488 125.671 35.2099 126.02 35.1577 126.402C35.1142 126.751 34.8183 127.003 34.4788 127.003ZM30.3536 126.42C30.3187 126.42 30.2839 126.42 30.2491 126.411L29.3266 126.272C28.9437 126.211 28.6913 125.854 28.7435 125.48C28.8044 125.106 29.1525 124.845 29.5355 124.897L30.4493 125.036C30.8322 125.097 31.0933 125.445 31.0324 125.828C30.9802 126.168 30.6843 126.42 30.3536 126.42ZM26.2283 125.767C26.1935 125.767 26.15 125.767 26.1151 125.758L25.2013 125.611C24.8184 125.55 24.566 125.193 24.6269 124.81C24.6878 124.427 25.0447 124.174 25.4276 124.235L26.3414 124.383C26.7244 124.444 26.9768 124.801 26.9158 125.184C26.8549 125.523 26.559 125.767 26.2283 125.767ZM22.1117 125.071C22.0682 125.071 22.0334 125.071 21.9899 125.062L21.076 124.897C20.7018 124.827 20.4494 124.47 20.5103 124.087C20.58 123.713 20.9368 123.461 21.3197 123.522L22.2336 123.687C22.6078 123.757 22.8602 124.114 22.7993 124.497C22.7383 124.836 22.4424 125.071 22.1117 125.071ZM18.0125 124.322C17.969 124.322 17.9255 124.314 17.882 124.314L16.9682 124.14C16.5939 124.07 16.3416 123.705 16.4199 123.33C16.4895 122.956 16.855 122.704 17.2293 122.782L18.1344 122.956C18.5086 123.026 18.761 123.391 18.6914 123.765C18.6305 124.087 18.3433 124.322 18.0125 124.322ZM13.9134 123.522C13.8699 123.522 13.8263 123.513 13.7741 123.504L12.8603 123.322C12.4861 123.243 12.2424 122.878 12.3207 122.504C12.399 122.129 12.7733 121.886 13.1388 121.964L14.0439 122.147C14.4182 122.225 14.6618 122.591 14.5922 122.965C14.5313 123.295 14.2441 123.522 13.9134 123.522ZM9.83162 122.686C9.78811 122.686 9.73589 122.678 9.68367 122.669L8.77855 122.477C8.40431 122.399 8.16062 122.025 8.24766 121.651C8.32598 121.276 8.70022 121.041 9.07445 121.12L9.97958 121.311C10.3538 121.39 10.5975 121.755 10.5105 122.138C10.4408 122.46 10.1536 122.686 9.83162 122.686ZM5.74986 121.799C5.69765 121.799 5.64543 121.79 5.59321 121.781L4.68808 121.581C4.31385 121.494 4.07887 121.128 4.1659 120.754C4.25293 120.38 4.62716 120.145 4.99269 120.232L5.89782 120.432C6.27205 120.519 6.50703 120.885 6.42 121.259C6.35908 121.581 6.07188 121.799 5.74986 121.799ZM1.68551 120.859C1.63329 120.859 1.58107 120.85 1.52015 120.841L0.606326 120.624C0.232092 120.528 0.00581101 120.154 0.101545 119.779C0.197279 119.405 0.56281 119.179 0.945747 119.275L1.85087 119.492C2.2251 119.579 2.45139 119.953 2.36435 120.328C2.27732 120.65 1.99882 120.859 1.68551 120.859Z" fill="#29292B"/>
<path d="M81.1189 128.813H80.1876C79.8047 128.813 79.4914 128.499 79.4914 128.117C79.4914 127.734 79.8047 127.42 80.1876 127.42H81.1102C81.4931 127.42 81.8064 127.734 81.8064 128.117C81.8064 128.499 81.5018 128.813 81.1189 128.813ZM84.3651 128.787C83.9822 128.787 83.6776 128.482 83.6689 128.099C83.6602 127.716 83.9648 127.403 84.3564 127.394L85.279 127.377C85.6619 127.385 85.9752 127.673 85.9839 128.056C85.9926 128.439 85.688 128.752 85.3051 128.761L84.3738 128.778C84.3738 128.787 84.3651 128.787 84.3651 128.787ZM76.9501 128.769C76.9414 128.769 76.9414 128.769 76.9327 128.769C76.3235 128.752 75.9927 128.743 75.9927 128.743C75.6098 128.726 75.3139 128.404 75.3313 128.021C75.3487 127.638 75.6881 127.359 76.0537 127.359C76.0537 127.359 76.3757 127.377 76.9675 127.385C77.3504 127.394 77.655 127.716 77.6463 128.099C77.6376 128.465 77.333 128.769 76.9501 128.769ZM88.5339 128.674C88.1597 128.674 87.8551 128.378 87.8377 128.003C87.8203 127.62 88.1249 127.298 88.5078 127.281L89.4303 127.246C89.8133 127.246 90.1353 127.533 90.1527 127.916C90.1701 128.299 89.8655 128.621 89.4826 128.639L88.5513 128.674C88.5513 128.674 88.5426 128.674 88.5339 128.674ZM92.694 128.491C92.3285 128.491 92.0239 128.204 91.9978 127.829C91.9804 127.446 92.2676 127.116 92.6505 127.098L93.573 127.046C93.956 127.02 94.2867 127.316 94.3041 127.699C94.3302 128.082 94.0343 128.412 93.6513 128.43L92.7201 128.482C92.7201 128.491 92.7114 128.491 92.694 128.491ZM96.8541 128.23C96.4973 128.23 96.1927 127.951 96.1578 127.586C96.1317 127.203 96.4189 126.872 96.8019 126.846L97.7157 126.776C98.0899 126.741 98.4294 127.029 98.4642 127.412C98.4903 127.795 98.2118 128.125 97.8288 128.16L96.8976 128.23C96.8889 128.23 96.8715 128.23 96.8541 128.23ZM101.014 127.882C100.657 127.882 100.353 127.612 100.327 127.255C100.292 126.872 100.57 126.533 100.953 126.498L101.876 126.411C102.267 126.376 102.598 126.654 102.633 127.037C102.668 127.42 102.389 127.76 102.006 127.795L101.084 127.882C101.058 127.882 101.032 127.882 101.014 127.882ZM105.157 127.455C104.809 127.455 104.513 127.194 104.469 126.837C104.426 126.454 104.704 126.115 105.079 126.071L106.001 125.967C106.375 125.915 106.723 126.193 106.767 126.576C106.81 126.959 106.541 127.298 106.158 127.342L105.235 127.446C105.209 127.455 105.183 127.455 105.157 127.455ZM109.291 126.942C108.951 126.942 108.656 126.689 108.603 126.341C108.551 125.958 108.821 125.61 109.195 125.558L110.109 125.436C110.483 125.384 110.84 125.645 110.892 126.028C110.944 126.411 110.683 126.759 110.3 126.811L109.378 126.942C109.36 126.942 109.326 126.942 109.291 126.942ZM113.416 126.332C113.077 126.332 112.789 126.089 112.729 125.749C112.668 125.366 112.929 125.018 113.303 124.957L114.217 124.809C114.6 124.757 114.948 125.01 115.017 125.384C115.078 125.767 114.826 126.115 114.443 126.184L113.529 126.332C113.494 126.332 113.451 126.332 113.416 126.332ZM117.524 125.627C117.193 125.627 116.906 125.392 116.845 125.062C116.776 124.688 117.028 124.322 117.402 124.252L118.307 124.078C118.681 124.009 119.047 124.252 119.117 124.627C119.186 125.001 118.943 125.366 118.568 125.436L117.655 125.61C117.611 125.619 117.567 125.627 117.524 125.627ZM121.606 124.809C121.284 124.809 120.997 124.583 120.927 124.261C120.849 123.887 121.084 123.513 121.458 123.434L122.354 123.243C122.728 123.156 123.103 123.391 123.181 123.765C123.268 124.139 123.033 124.513 122.659 124.592L121.745 124.792C121.701 124.809 121.649 124.809 121.606 124.809ZM125.661 123.878C125.348 123.878 125.07 123.669 124.991 123.347C124.896 122.973 125.122 122.599 125.496 122.503L126.392 122.277C126.758 122.181 127.141 122.407 127.237 122.782C127.332 123.156 127.106 123.53 126.732 123.626L125.827 123.852C125.775 123.869 125.722 123.878 125.661 123.878ZM129.7 122.808C129.395 122.808 129.117 122.607 129.029 122.303C128.925 121.937 129.143 121.554 129.508 121.441C129.804 121.354 130.1 121.276 130.396 121.189C130.77 121.084 131.153 121.293 131.257 121.659C131.362 122.024 131.153 122.416 130.788 122.52C130.492 122.607 130.187 122.695 129.891 122.782C129.821 122.799 129.761 122.808 129.7 122.808ZM133.686 121.598C133.39 121.598 133.12 121.415 133.024 121.119C132.902 120.754 133.103 120.362 133.468 120.24C133.764 120.144 134.051 120.049 134.338 119.953C134.704 119.831 135.096 120.023 135.217 120.388C135.339 120.754 135.148 121.145 134.782 121.267C134.486 121.363 134.19 121.467 133.895 121.563C133.834 121.589 133.755 121.598 133.686 121.598ZM137.619 120.223C137.341 120.223 137.071 120.049 136.967 119.77C136.827 119.413 137.01 119.013 137.376 118.874L138.237 118.543C138.594 118.404 138.995 118.587 139.134 118.943C139.273 119.3 139.09 119.701 138.733 119.84L137.863 120.171C137.785 120.205 137.698 120.223 137.619 120.223Z" fill="#29292B"/>
<path d="M71.5368 30.645C110.318 30.645 126.398 19.6847 126.398 17.2672C126.398 14.8496 108.269 5.82349 71.5368 5.82349C34.8049 5.82349 13.3665 13.238 13.3647 17.2672C13.363 21.2964 32.7554 30.645 71.5368 30.645Z" stroke="#FF0000" stroke-width="1.52748" stroke-linecap="round" stroke-linejoin="round" stroke-dasharray="3.44 3.44"/>
<path d="M71.3735 79.1436C115.396 79.1436 133.649 66.8344 133.649 64.1192C133.649 61.4041 113.069 51.2671 71.3735 51.2671C29.6778 51.2671 5.34227 59.5941 5.34033 64.1192C5.33839 68.6444 27.3514 79.1436 71.3735 79.1436Z" stroke="#FF0000" stroke-width="1.52748" stroke-linecap="round" stroke-linejoin="round" stroke-dasharray="3.44 3.44"/>
<path d="M114.027 13.1565L123.724 14.6934L117.238 7.72998L114.027 13.1565Z" fill="#FF0000"/>
<path d="M121.284 60.1257L130.981 61.6626L124.495 54.6992L121.284 60.1257Z" fill="#FF0000"/>
<path d="M235.44 48.24C234.333 48.24 233.307 48.06 232.36 47.7C231.427 47.34 230.613 46.8333 229.92 46.18C229.24 45.5267 228.707 44.76 228.32 43.88C227.947 43 227.76 42.04 227.76 41C227.76 39.96 227.947 39 228.32 38.12C228.707 37.24 229.247 36.4733 229.94 35.82C230.633 35.1667 231.447 34.66 232.38 34.3C233.313 33.94 234.327 33.76 235.42 33.76C236.527 33.76 237.54 33.94 238.46 34.3C239.393 34.66 240.2 35.1667 240.88 35.82C241.573 36.4733 242.113 37.24 242.5 38.12C242.887 38.9867 243.08 39.9467 243.08 41C243.08 42.04 242.887 43.0067 242.5 43.9C242.113 44.78 241.573 45.5467 240.88 46.2C240.2 46.84 239.393 47.34 238.46 47.7C237.54 48.06 236.533 48.24 235.44 48.24ZM235.42 45.48C236.047 45.48 236.62 45.3733 237.14 45.16C237.673 44.9467 238.14 44.64 238.54 44.24C238.94 43.84 239.247 43.3667 239.46 42.82C239.687 42.2733 239.8 41.6667 239.8 41C239.8 40.3333 239.687 39.7267 239.46 39.18C239.247 38.6333 238.94 38.16 238.54 37.76C238.153 37.36 237.693 37.0533 237.16 36.84C236.627 36.6267 236.047 36.52 235.42 36.52C234.793 36.52 234.213 36.6267 233.68 36.84C233.16 37.0533 232.7 37.36 232.3 37.76C231.9 38.16 231.587 38.6333 231.36 39.18C231.147 39.7267 231.04 40.3333 231.04 41C231.04 41.6533 231.147 42.26 231.36 42.82C231.587 43.3667 231.893 43.84 232.28 44.24C232.68 44.64 233.147 44.9467 233.68 45.16C234.213 45.3733 234.793 45.48 235.42 45.48ZM250.676 48.24C249.796 48.24 248.996 48.1133 248.276 47.86C247.556 47.5933 246.929 47.1867 246.396 46.64C245.876 46.08 245.469 45.3667 245.176 44.5C244.896 43.6333 244.756 42.6 244.756 41.4C244.756 40.5467 244.829 39.7667 244.976 39.06C245.123 38.3533 245.343 37.7133 245.636 37.14C245.929 36.5533 246.303 36.04 246.756 35.6C247.223 35.1467 247.763 34.7733 248.376 34.48C249.003 34.1733 249.709 33.94 250.496 33.78L255.616 32.76L256.036 35.44L251.516 36.34C251.249 36.3933 250.943 36.4667 250.596 36.56C250.263 36.64 249.923 36.7667 249.576 36.94C249.243 37.1133 248.929 37.36 248.636 37.68C248.356 37.9867 248.129 38.3933 247.956 38.9C247.783 39.3933 247.696 40.0067 247.696 40.74C247.696 40.9667 247.703 41.14 247.716 41.26C247.743 41.38 247.763 41.5067 247.776 41.64C247.803 41.7733 247.816 41.98 247.816 42.26L246.816 41.28C247.109 40.6533 247.483 40.12 247.936 39.68C248.403 39.24 248.936 38.9067 249.536 38.68C250.149 38.44 250.829 38.32 251.576 38.32C252.589 38.32 253.476 38.5267 254.236 38.94C255.009 39.34 255.609 39.9067 256.036 40.64C256.463 41.3733 256.676 42.2067 256.676 43.14C256.676 44.1533 256.423 45.0467 255.916 45.82C255.409 46.58 254.703 47.1733 253.796 47.6C252.903 48.0267 251.863 48.24 250.676 48.24ZM250.836 45.82C251.356 45.82 251.816 45.7067 252.216 45.48C252.616 45.24 252.923 44.9267 253.136 44.54C253.363 44.14 253.476 43.6933 253.476 43.2C253.476 42.72 253.363 42.2933 253.136 41.92C252.923 41.5467 252.616 41.2533 252.216 41.04C251.816 40.8267 251.349 40.72 250.816 40.72C250.296 40.72 249.829 40.8267 249.416 41.04C249.003 41.24 248.683 41.52 248.456 41.88C248.229 42.24 248.116 42.66 248.116 43.14C248.116 43.6333 248.229 44.0867 248.456 44.5C248.696 44.9 249.016 45.22 249.416 45.46C249.829 45.7 250.303 45.82 250.836 45.82ZM257.021 48L261.841 41.68L261.781 43.4L257.161 37.24H260.661L263.581 41.26L262.261 41.3L265.281 37.24H268.601L263.961 43.34V41.66L268.761 48H265.221L262.161 43.72L263.461 43.9L260.421 48H257.021ZM270.297 48V37.24H275.797C277.144 37.24 278.197 37.4867 278.957 37.98C279.717 38.46 280.097 39.14 280.097 40.02C280.097 40.9 279.737 41.5933 279.017 42.1C278.31 42.5933 277.37 42.84 276.197 42.84L276.517 42.12C277.824 42.12 278.797 42.36 279.437 42.84C280.09 43.32 280.417 44.02 280.417 44.94C280.417 45.8867 280.057 46.6333 279.337 47.18C278.617 47.7267 277.517 48 276.037 48H270.297ZM273.157 45.88H275.777C276.35 45.88 276.777 45.7867 277.057 45.6C277.35 45.4 277.497 45.1 277.497 44.7C277.497 44.2867 277.364 43.9867 277.097 43.8C276.83 43.6 276.41 43.5 275.837 43.5H273.157V45.88ZM273.157 41.66H275.517C276.064 41.66 276.47 41.56 276.737 41.36C277.017 41.16 277.157 40.8733 277.157 40.5C277.157 40.1133 277.017 39.8267 276.737 39.64C276.47 39.4533 276.064 39.36 275.517 39.36H273.157V41.66ZM289.178 48V45.9L288.978 45.44V41.68C288.978 41.0133 288.772 40.4933 288.358 40.12C287.958 39.7467 287.338 39.56 286.498 39.56C285.925 39.56 285.358 39.6533 284.798 39.84C284.252 40.0133 283.785 40.2533 283.398 40.56L282.278 38.38C282.865 37.9667 283.572 37.6467 284.398 37.42C285.225 37.1933 286.065 37.08 286.918 37.08C288.558 37.08 289.832 37.4667 290.738 38.24C291.645 39.0133 292.098 40.22 292.098 41.86V48H289.178ZM285.898 48.16C285.058 48.16 284.338 48.02 283.738 47.74C283.138 47.4467 282.678 47.0533 282.358 46.56C282.038 46.0667 281.878 45.5133 281.878 44.9C281.878 44.26 282.032 43.7 282.338 43.22C282.658 42.74 283.158 42.3667 283.838 42.1C284.518 41.82 285.405 41.68 286.498 41.68H289.358V43.5H286.838C286.105 43.5 285.598 43.62 285.318 43.86C285.052 44.1 284.918 44.4 284.918 44.76C284.918 45.16 285.072 45.48 285.378 45.72C285.698 45.9467 286.132 46.06 286.678 46.06C287.198 46.06 287.665 45.94 288.078 45.7C288.492 45.4467 288.792 45.08 288.978 44.6L289.458 46.04C289.232 46.7333 288.818 47.26 288.218 47.62C287.618 47.98 286.845 48.16 285.898 48.16ZM297.109 48V39.08L297.809 39.8H293.469V37.24H303.849V39.8H299.509L300.209 39.08V48H297.109ZM313.476 48V39.08L314.176 39.8H309.836V37.24H320.216V39.8H315.876L316.576 39.08V48H313.476ZM328.319 48V45.9L328.119 45.44V41.68C328.119 41.0133 327.912 40.4933 327.499 40.12C327.099 39.7467 326.479 39.56 325.639 39.56C325.066 39.56 324.499 39.6533 323.939 39.84C323.392 40.0133 322.926 40.2533 322.539 40.56L321.419 38.38C322.006 37.9667 322.712 37.6467 323.539 37.42C324.366 37.1933 325.206 37.08 326.059 37.08C327.699 37.08 328.972 37.4667 329.879 38.24C330.786 39.0133 331.239 40.22 331.239 41.86V48H328.319ZM325.039 48.16C324.199 48.16 323.479 48.02 322.879 47.74C322.279 47.4467 321.819 47.0533 321.499 46.56C321.179 46.0667 321.019 45.5133 321.019 44.9C321.019 44.26 321.172 43.7 321.479 43.22C321.799 42.74 322.299 42.3667 322.979 42.1C323.659 41.82 324.546 41.68 325.639 41.68H328.499V43.5H325.979C325.246 43.5 324.739 43.62 324.459 43.86C324.192 44.1 324.059 44.4 324.059 44.76C324.059 45.16 324.212 45.48 324.519 45.72C324.839 45.9467 325.272 46.06 325.819 46.06C326.339 46.06 326.806 45.94 327.219 45.7C327.632 45.4467 327.932 45.08 328.119 44.6L328.599 46.04C328.372 46.7333 327.959 47.26 327.359 47.62C326.759 47.98 325.986 48.16 325.039 48.16ZM332.589 47.98L332.749 45.42C332.829 45.4333 332.909 45.4467 332.989 45.46C333.069 45.46 333.143 45.46 333.209 45.46C333.583 45.46 333.876 45.3533 334.089 45.14C334.303 44.9267 334.463 44.64 334.569 44.28C334.676 43.9067 334.749 43.4867 334.789 43.02C334.843 42.5533 334.883 42.0667 334.909 41.56L335.069 37.24H344.269V48H341.149V39.04L341.849 39.8H337.129L337.789 39L337.649 41.7C337.609 42.66 337.529 43.54 337.409 44.34C337.303 45.14 337.123 45.8333 336.869 46.42C336.616 46.9933 336.276 47.44 335.849 47.76C335.423 48.0667 334.876 48.22 334.209 48.22C333.969 48.22 333.716 48.2 333.449 48.16C333.183 48.12 332.896 48.06 332.589 47.98ZM347.27 48V37.24H350.37V43.64L355.61 37.24H358.47V48H355.37V41.6L350.15 48H347.27ZM361.469 48V37.24H364.569V43.64L369.809 37.24H372.669V48H369.569V41.6L364.349 48H361.469Z" fill="#29292B"/>
<path d="M235.44 95.24C234.333 95.24 233.307 95.06 232.36 94.7C231.427 94.34 230.613 93.8333 229.92 93.18C229.24 92.5267 228.707 91.76 228.32 90.88C227.947 90 227.76 89.04 227.76 88C227.76 86.96 227.947 86 228.32 85.12C228.707 84.24 229.247 83.4733 229.94 82.82C230.633 82.1667 231.447 81.66 232.38 81.3C233.313 80.94 234.327 80.76 235.42 80.76C236.527 80.76 237.54 80.94 238.46 81.3C239.393 81.66 240.2 82.1667 240.88 82.82C241.573 83.4733 242.113 84.24 242.5 85.12C242.887 85.9867 243.08 86.9467 243.08 88C243.08 89.04 242.887 90.0067 242.5 90.9C242.113 91.78 241.573 92.5467 240.88 93.2C240.2 93.84 239.393 94.34 238.46 94.7C237.54 95.06 236.533 95.24 235.44 95.24ZM235.42 92.48C236.047 92.48 236.62 92.3733 237.14 92.16C237.673 91.9467 238.14 91.64 238.54 91.24C238.94 90.84 239.247 90.3667 239.46 89.82C239.687 89.2733 239.8 88.6667 239.8 88C239.8 87.3333 239.687 86.7267 239.46 86.18C239.247 85.6333 238.94 85.16 238.54 84.76C238.153 84.36 237.693 84.0533 237.16 83.84C236.627 83.6267 236.047 83.52 235.42 83.52C234.793 83.52 234.213 83.6267 233.68 83.84C233.16 84.0533 232.7 84.36 232.3 84.76C231.9 85.16 231.587 85.6333 231.36 86.18C231.147 86.7267 231.04 87.3333 231.04 88C231.04 88.6533 231.147 89.26 231.36 89.82C231.587 90.3667 231.893 90.84 232.28 91.24C232.68 91.64 233.147 91.9467 233.68 92.16C234.213 92.3733 234.793 92.48 235.42 92.48ZM250.676 95.24C249.796 95.24 248.996 95.1133 248.276 94.86C247.556 94.5933 246.929 94.1867 246.396 93.64C245.876 93.08 245.469 92.3667 245.176 91.5C244.896 90.6333 244.756 89.6 244.756 88.4C244.756 87.5467 244.829 86.7667 244.976 86.06C245.123 85.3533 245.343 84.7133 245.636 84.14C245.929 83.5533 246.303 83.04 246.756 82.6C247.223 82.1467 247.763 81.7733 248.376 81.48C249.003 81.1733 249.709 80.94 250.496 80.78L255.616 79.76L256.036 82.44L251.516 83.34C251.249 83.3933 250.943 83.4667 250.596 83.56C250.263 83.64 249.923 83.7667 249.576 83.94C249.243 84.1133 248.929 84.36 248.636 84.68C248.356 84.9867 248.129 85.3933 247.956 85.9C247.783 86.3933 247.696 87.0067 247.696 87.74C247.696 87.9667 247.703 88.14 247.716 88.26C247.743 88.38 247.763 88.5067 247.776 88.64C247.803 88.7733 247.816 88.98 247.816 89.26L246.816 88.28C247.109 87.6533 247.483 87.12 247.936 86.68C248.403 86.24 248.936 85.9067 249.536 85.68C250.149 85.44 250.829 85.32 251.576 85.32C252.589 85.32 253.476 85.5267 254.236 85.94C255.009 86.34 255.609 86.9067 256.036 87.64C256.463 88.3733 256.676 89.2067 256.676 90.14C256.676 91.1533 256.423 92.0467 255.916 92.82C255.409 93.58 254.703 94.1733 253.796 94.6C252.903 95.0267 251.863 95.24 250.676 95.24ZM250.836 92.82C251.356 92.82 251.816 92.7067 252.216 92.48C252.616 92.24 252.923 91.9267 253.136 91.54C253.363 91.14 253.476 90.6933 253.476 90.2C253.476 89.72 253.363 89.2933 253.136 88.92C252.923 88.5467 252.616 88.2533 252.216 88.04C251.816 87.8267 251.349 87.72 250.816 87.72C250.296 87.72 249.829 87.8267 249.416 88.04C249.003 88.24 248.683 88.52 248.456 88.88C248.229 89.24 248.116 89.66 248.116 90.14C248.116 90.6333 248.229 91.0867 248.456 91.5C248.696 91.9 249.016 92.22 249.416 92.46C249.829 92.7 250.303 92.82 250.836 92.82ZM257.021 95L261.841 88.68L261.781 90.4L257.161 84.24H260.661L263.581 88.26L262.261 88.3L265.281 84.24H268.601L263.961 90.34V88.66L268.761 95H265.221L262.161 90.72L263.461 90.9L260.421 95H257.021ZM270.297 95V84.24H275.797C277.144 84.24 278.197 84.4867 278.957 84.98C279.717 85.46 280.097 86.14 280.097 87.02C280.097 87.9 279.737 88.5933 279.017 89.1C278.31 89.5933 277.37 89.84 276.197 89.84L276.517 89.12C277.824 89.12 278.797 89.36 279.437 89.84C280.09 90.32 280.417 91.02 280.417 91.94C280.417 92.8867 280.057 93.6333 279.337 94.18C278.617 94.7267 277.517 95 276.037 95H270.297ZM273.157 92.88H275.777C276.35 92.88 276.777 92.7867 277.057 92.6C277.35 92.4 277.497 92.1 277.497 91.7C277.497 91.2867 277.364 90.9867 277.097 90.8C276.83 90.6 276.41 90.5 275.837 90.5H273.157V92.88ZM273.157 88.66H275.517C276.064 88.66 276.47 88.56 276.737 88.36C277.017 88.16 277.157 87.8733 277.157 87.5C277.157 87.1133 277.017 86.8267 276.737 86.64C276.47 86.4533 276.064 86.36 275.517 86.36H273.157V88.66ZM289.178 95V92.9L288.978 92.44V88.68C288.978 88.0133 288.772 87.4933 288.358 87.12C287.958 86.7467 287.338 86.56 286.498 86.56C285.925 86.56 285.358 86.6533 284.798 86.84C284.252 87.0133 283.785 87.2533 283.398 87.56L282.278 85.38C282.865 84.9667 283.572 84.6467 284.398 84.42C285.225 84.1933 286.065 84.08 286.918 84.08C288.558 84.08 289.832 84.4667 290.738 85.24C291.645 86.0133 292.098 87.22 292.098 88.86V95H289.178ZM285.898 95.16C285.058 95.16 284.338 95.02 283.738 94.74C283.138 94.4467 282.678 94.0533 282.358 93.56C282.038 93.0667 281.878 92.5133 281.878 91.9C281.878 91.26 282.032 90.7 282.338 90.22C282.658 89.74 283.158 89.3667 283.838 89.1C284.518 88.82 285.405 88.68 286.498 88.68H289.358V90.5H286.838C286.105 90.5 285.598 90.62 285.318 90.86C285.052 91.1 284.918 91.4 284.918 91.76C284.918 92.16 285.072 92.48 285.378 92.72C285.698 92.9467 286.132 93.06 286.678 93.06C287.198 93.06 287.665 92.94 288.078 92.7C288.492 92.4467 288.792 92.08 288.978 91.6L289.458 93.04C289.232 93.7333 288.818 94.26 288.218 94.62C287.618 94.98 286.845 95.16 285.898 95.16ZM297.109 95V86.08L297.809 86.8H293.469V84.24H303.849V86.8H299.509L300.209 86.08V95H297.109ZM316.516 95.24C315.636 95.24 314.836 95.1133 314.116 94.86C313.396 94.5933 312.769 94.1867 312.236 93.64C311.716 93.08 311.309 92.3667 311.016 91.5C310.736 90.6333 310.596 89.6 310.596 88.4C310.596 87.5467 310.669 86.7667 310.816 86.06C310.962 85.3533 311.182 84.7133 311.476 84.14C311.769 83.5533 312.142 83.04 312.596 82.6C313.062 82.1467 313.602 81.7733 314.216 81.48C314.842 81.1733 315.549 80.94 316.336 80.78L321.456 79.76L321.876 82.44L317.356 83.34C317.089 83.3933 316.782 83.4667 316.436 83.56C316.102 83.64 315.762 83.7667 315.416 83.94C315.082 84.1133 314.769 84.36 314.476 84.68C314.196 84.9867 313.969 85.3933 313.796 85.9C313.622 86.3933 313.536 87.0067 313.536 87.74C313.536 87.9667 313.542 88.14 313.556 88.26C313.582 88.38 313.602 88.5067 313.616 88.64C313.642 88.7733 313.656 88.98 313.656 89.26L312.656 88.28C312.949 87.6533 313.322 87.12 313.776 86.68C314.242 86.24 314.776 85.9067 315.376 85.68C315.989 85.44 316.669 85.32 317.416 85.32C318.429 85.32 319.316 85.5267 320.076 85.94C320.849 86.34 321.449 86.9067 321.876 87.64C322.302 88.3733 322.516 89.2067 322.516 90.14C322.516 91.1533 322.262 92.0467 321.756 92.82C321.249 93.58 320.542 94.1733 319.636 94.6C318.742 95.0267 317.702 95.24 316.516 95.24ZM316.676 92.82C317.196 92.82 317.656 92.7067 318.056 92.48C318.456 92.24 318.762 91.9267 318.976 91.54C319.202 91.14 319.316 90.6933 319.316 90.2C319.316 89.72 319.202 89.2933 318.976 88.92C318.762 88.5467 318.456 88.2533 318.056 88.04C317.656 87.8267 317.189 87.72 316.656 87.72C316.136 87.72 315.669 87.8267 315.256 88.04C314.842 88.24 314.522 88.52 314.296 88.88C314.069 89.24 313.956 89.66 313.956 90.14C313.956 90.6333 314.069 91.0867 314.296 91.5C314.536 91.9 314.856 92.22 315.256 92.46C315.669 92.7 316.142 92.82 316.676 92.82ZM329.893 95.16C328.666 95.16 327.586 94.92 326.653 94.44C325.733 93.96 325.019 93.3067 324.513 92.48C324.006 91.64 323.753 90.6867 323.753 89.62C323.753 88.54 323.999 87.5867 324.493 86.76C324.999 85.92 325.686 85.2667 326.553 84.8C327.419 84.32 328.399 84.08 329.493 84.08C330.546 84.08 331.493 84.3067 332.333 84.76C333.186 85.2 333.859 85.84 334.353 86.68C334.846 87.5067 335.093 88.5 335.093 89.66C335.093 89.78 335.086 89.92 335.073 90.08C335.059 90.2267 335.046 90.3667 335.033 90.5H326.293V88.68H333.393L332.193 89.22C332.193 88.66 332.079 88.1733 331.853 87.76C331.626 87.3467 331.313 87.0267 330.913 86.8C330.513 86.56 330.046 86.44 329.513 86.44C328.979 86.44 328.506 86.56 328.093 86.8C327.693 87.0267 327.379 87.3533 327.153 87.78C326.926 88.1933 326.813 88.6867 326.813 89.26V89.74C326.813 90.3267 326.939 90.8467 327.193 91.3C327.459 91.74 327.826 92.08 328.293 92.32C328.773 92.5467 329.333 92.66 329.973 92.66C330.546 92.66 331.046 92.5733 331.473 92.4C331.913 92.2267 332.313 91.9667 332.673 91.62L334.333 93.42C333.839 93.98 333.219 94.4133 332.473 94.72C331.726 95.0133 330.866 95.16 329.893 95.16ZM344.787 93.6V86.8H341.267L341.207 88.18C341.18 88.7533 341.147 89.3 341.107 89.82C341.067 90.34 340.987 90.8133 340.867 91.24C340.76 91.6533 340.6 92.0067 340.387 92.3C340.173 92.58 339.887 92.7733 339.527 92.88L336.447 92.44C336.833 92.44 337.147 92.3267 337.387 92.1C337.627 91.86 337.813 91.5333 337.947 91.12C338.08 90.6933 338.18 90.2133 338.247 89.68C338.313 89.1333 338.36 88.56 338.387 87.96L338.527 84.24H347.907V93.6H344.787ZM336.087 97.32V92.44H349.447V97.32H346.547V95H338.987V97.32H336.087ZM356.67 95.16C355.443 95.16 354.363 94.92 353.43 94.44C352.51 93.96 351.797 93.3067 351.29 92.48C350.783 91.64 350.53 90.6867 350.53 89.62C350.53 88.54 350.777 87.5867 351.27 86.76C351.777 85.92 352.463 85.2667 353.33 84.8C354.197 84.32 355.177 84.08 356.27 84.08C357.323 84.08 358.27 84.3067 359.11 84.76C359.963 85.2 360.637 85.84 361.13 86.68C361.623 87.5067 361.87 88.5 361.87 89.66C361.87 89.78 361.863 89.92 361.85 90.08C361.837 90.2267 361.823 90.3667 361.81 90.5H353.07V88.68H360.17L358.97 89.22C358.97 88.66 358.857 88.1733 358.63 87.76C358.403 87.3467 358.09 87.0267 357.69 86.8C357.29 86.56 356.823 86.44 356.29 86.44C355.757 86.44 355.283 86.56 354.87 86.8C354.47 87.0267 354.157 87.3533 353.93 87.78C353.703 88.1933 353.59 88.6867 353.59 89.26V89.74C353.59 90.3267 353.717 90.8467 353.97 91.3C354.237 91.74 354.603 92.08 355.07 92.32C355.55 92.5467 356.11 92.66 356.75 92.66C357.323 92.66 357.823 92.5733 358.25 92.4C358.69 92.2267 359.09 91.9667 359.45 91.62L361.11 93.42C360.617 93.98 359.997 94.4133 359.25 94.72C358.503 95.0133 357.643 95.16 356.67 95.16ZM370.602 95.16C369.695 95.16 368.902 94.96 368.222 94.56C367.542 94.16 367.008 93.5533 366.622 92.74C366.248 91.9133 366.062 90.8733 366.062 89.62C366.062 88.3533 366.242 87.3133 366.602 86.5C366.962 85.6867 367.482 85.08 368.162 84.68C368.842 84.28 369.655 84.08 370.602 84.08C371.615 84.08 372.522 84.3133 373.322 84.78C374.135 85.2333 374.775 85.8733 375.242 86.7C375.722 87.5267 375.962 88.5 375.962 89.62C375.962 90.7533 375.722 91.7333 375.242 92.56C374.775 93.3867 374.135 94.0267 373.322 94.48C372.522 94.9333 371.615 95.16 370.602 95.16ZM364.242 98.88V84.24H367.222V86.44L367.162 89.64L367.362 92.82V98.88H364.242ZM370.062 92.6C370.582 92.6 371.042 92.48 371.442 92.24C371.855 92 372.182 91.66 372.422 91.22C372.675 90.7667 372.802 90.2333 372.802 89.62C372.802 88.9933 372.675 88.46 372.422 88.02C372.182 87.58 371.855 87.24 371.442 87C371.042 86.76 370.582 86.64 370.062 86.64C369.542 86.64 369.075 86.76 368.662 87C368.248 87.24 367.922 87.58 367.682 88.02C367.442 88.46 367.322 88.9933 367.322 89.62C367.322 90.2333 367.442 90.7667 367.682 91.22C367.922 91.66 368.248 92 368.662 92.24C369.075 92.48 369.542 92.6 370.062 92.6Z" fill="#29292B"/>
<path d="M196.192 50L203.68 33.2H207.52L215.032 50H210.952L204.808 35.168H206.344L200.176 50H196.192ZM199.936 46.4L200.968 43.448H209.608L210.664 46.4H199.936Z" fill="#FF0000"/>
<path d="M197.992 97V80.2H206.2C208.312 80.2 209.896 80.6 210.952 81.4C212.024 82.2 212.56 83.256 212.56 84.568C212.56 85.448 212.344 86.216 211.912 86.872C211.48 87.512 210.888 88.008 210.136 88.36C209.384 88.712 208.52 88.888 207.544 88.888L208 87.904C209.056 87.904 209.992 88.08 210.808 88.432C211.624 88.768 212.256 89.272 212.704 89.944C213.168 90.616 213.4 91.44 213.4 92.416C213.4 93.856 212.832 94.984 211.696 95.8C210.56 96.6 208.888 97 206.68 97H197.992ZM201.856 94.072H206.392C207.4 94.072 208.16 93.912 208.672 93.592C209.2 93.256 209.464 92.728 209.464 92.008C209.464 91.304 209.2 90.784 208.672 90.448C208.16 90.096 207.4 89.92 206.392 89.92H201.568V87.088H205.72C206.664 87.088 207.384 86.928 207.88 86.608C208.392 86.272 208.648 85.768 208.648 85.096C208.648 84.44 208.392 83.952 207.88 83.632C207.384 83.296 206.664 83.128 205.72 83.128H201.856V94.072Z" fill="#FF0000"/>
</svg>
